<svg
      xmlns="http://www.w3.org/2000/svg"
      xmlnsXlink="http://www.w3.org/1999/xlink"
      width="44"
      height="33"
      viewBox="0 0 44 33"
    >
      <defs>
        <path
          id="path-1"
          d="M0.0000846153846 0.353184615L33.5183806 0.353184615 33.5183806 32.1538462 0.0000846153846 32.1538462z"
        ></path>
      </defs>
      <g fill="none" fillRule="evenodd" stroke="none" strokeWidth="1">
        <g>
          <path
            fill="#223C38"
            d="M40.136 17.282a7.14 7.14 0 01-2.61 2.588 7.09 7.09 0 01-3.658.981 7.084 7.084 0 01-3.659-.981 7.125 7.125 0 01-2.611-2.588.977.977 0 01-.156-.536.98.98 0 01.156-.535 7.131 7.131 0 012.611-2.588 7.092 7.092 0 013.659-.981c1.322 0 2.543.326 3.659.981 1.1.64 1.97 1.502 2.61 2.588a.982.982 0 010 1.071m-6.27-10.153a9.617 9.617 0 00-9.617 9.617 9.617 9.617 0 1019.234 0c0-5.31-4.306-9.617-9.616-9.617"
          ></path>
          <path
            fill="#223C38"
            d="M36.277 14.18c.416.55.625 1.169.625 1.852 0 .551-.138 1.057-.413 1.517-.275.462-.644.83-1.105 1.105a2.91 2.91 0 01-1.517.413c-.55 0-1.057-.138-1.517-.413a3.14 3.14 0 01-1.104-1.105 2.904 2.904 0 01-.413-1.517c0-.505.118-.981.357-1.427 0 .342.123.635.368.88a1.2 1.2 0 00.882.37 1.2 1.2 0 00.88-.37c.246-.245.369-.538.369-.88 0-.342-.12-.632-.356-.87a6.153 6.153 0 00-2.79.937 6.148 6.148 0 00-2.03 2.074 6.174 6.174 0 002.242 2.209c.944.55 1.981.826 3.112.826 1.13 0 2.168-.276 3.112-.826a6.187 6.187 0 002.243-2.209 6.458 6.458 0 00-1.261-1.506 6.268 6.268 0 00-1.684-1.06"
          ></path>
          <g transform="translate(0 .493)">
            <mask id="mask-2" fill="#fff">
              <use xlinkHref="#path-1"></use>
            </mask>
            <path
              fill="#223C38"
              d="M10.043 18.828L5.483 14.5 14.91 5.55l4.56 4.328-9.428 8.95zm-.55 2.063L8.42 21.909l-6.183-5.87 1.054-1c.14-.126.388-.129.522 0l5.673 5.384c.04.042.137.14.136.245-.002.068-.045.143-.13.223zm5.969-17.405l1.071-1.017 6.184 5.87L21.66 9.34a.407.407 0 01-.52 0l-5.684-5.395a.368.368 0 01-.104-.236c-.002-.079.034-.151.109-.223zM31.39 26.244c.311.489.497 1.038.498 1.574 0 .716-.301 1.368-.899 1.937-1.573 1.495-3.503.754-4.405-.105L14.377 16.838 17.367 14l6.86 5.856c-.305-.813-.52-1.67-.61-2.566l-5.123-4.353 2.216-2.103c.395.146 1.267.336 2.053-.41l2.191-2.079-8.42-7.992-2.175 2.063c-.61.581-.763 1.233-.443 1.961L4.234 13.56c-.706-.244-1.527-.089-2.044.401L0 16.039l8.42 7.993 2.174-2.063c.424-.403.83-1.06.443-1.96l2.221-2.11L25.43 30.672c.638.67 1.993 1.483 3.534 1.483 1.013 0 2.106-.35 3.13-1.322.975-.928 1.453-1.968 1.423-3.09a3.973 3.973 0 00-.233-1.216 10.325 10.325 0 01-1.893-.282z"
              mask="url(#mask-2)"
            ></path>
          </g>
        </g>
      </g>
    </svg>