<svg width="196" height="37" viewBox="0 0 196 37" fill="none" xmlns="http://www.w3.org/2000/svg">
<mask id="mask0_1_11803" style="mask-type:alpha" maskUnits="userSpaceOnUse" x="0" y="0" width="67" height="36">
<g clip-path="url(#clip0_1_11803)">
<path d="M37.2024 5.03513V5.0199C37.2024 2.25227 34.9556 0.00866699 32.1841 0.00866699L5.03342 0.00866699C2.26189 0.00866699 0.0151253 2.25227 0.0151253 5.0199V5.03513C0.0151253 7.80276 2.26189 10.0464 5.03342 10.0464L32.1841 10.0464C34.9556 10.0464 37.2024 7.80276 37.2024 5.03513Z" fill="white"/>
<path d="M24.5117 17.906V17.8907C24.5117 15.1231 22.265 12.8795 19.4934 12.8795L5.01815 12.8795C2.24662 12.8795 -0.000148773 15.1231 -0.000148773 17.8907V17.906C-0.000148773 20.6736 2.24662 22.9172 5.01815 22.9172H19.4934C22.265 22.9172 24.5117 20.6736 24.5117 17.906Z" fill="white"/>
<path d="M30.8418 30.792V30.7767C30.8418 28.0091 28.595 25.7655 25.8235 25.7655H5.0029C2.23137 25.7655 -0.0153942 28.0091 -0.0153942 30.7767V30.792C-0.0153942 33.5596 2.23137 35.8032 5.0029 35.8032H25.8235C28.595 35.8032 30.8418 33.5596 30.8418 30.792Z" fill="white"/>
<path d="M64.4361 0.700491L64.4229 0.692874C62.0227 -0.690941 58.9535 0.130275 57.5678 2.52711L42.6807 28.276C41.2949 30.6729 42.1173 33.7377 44.5175 35.1215L44.5307 35.1291C46.9309 36.5129 50 35.6917 51.3858 33.2949L66.2729 7.54596C67.6587 5.14913 66.8363 2.08431 64.4361 0.700491Z" fill="white"/>
<path d="M49.5358 35.0982L49.549 35.0906C51.9493 33.7068 52.7716 30.6419 51.3859 28.2451L36.514 2.52256C35.1283 0.125731 32.0591 -0.695489 29.6589 0.688326L29.6457 0.695942C27.2455 2.07976 26.4231 5.14458 27.8089 7.54141L42.6807 33.264C44.0665 35.6608 47.1356 36.482 49.5358 35.0982Z" fill="white"/>
</g>
</mask>
<g mask="url(#mask0_1_11803)">
<rect x="67.0088" y="35.8472" width="67.0088" height="35.7621" transform="rotate(-180 67.0088 35.8472)" fill="url(#paint0_linear_1_11803)"/>
</g>
<path d="M88.5588 15.3847V12.1298H82.2226V9.17871H87.9512V6.16254H82.2226V3.23316H88.5371V0H78.7942V15.3847H88.5588Z" fill="white"/>
<path d="M98.1251 10.8278L94.4145 0H90.6389L96.2806 15.3847H99.8176L105.438 0H101.792L98.1251 10.8278Z" fill="white"/>
<path d="M89.1012 35.7088H92.8335L87.1049 20.3241H83.134L77.3403 35.7088H80.9424L82.049 32.5841H87.9946L89.1012 35.7088ZM85.0652 24.1431L86.9096 29.4594H83.1774L85.0652 24.1431Z" fill="white"/>
<path d="M100.709 36.0559C104.094 36.0559 106.806 34.0162 106.806 30.1538V20.3241H103.378V29.8717C103.378 31.7378 102.336 32.6709 100.709 32.6709C99.0813 32.6709 98.0398 31.7378 98.0398 29.8717V20.3241H94.6113V30.1538C94.6113 34.0162 97.3237 36.0559 100.709 36.0559Z" fill="white"/>
<path d="M117.657 36.0342C122.431 36.0342 124.471 32.7794 124.97 30.6529L121.693 29.7198C121.39 30.8265 120.326 32.6058 117.657 32.6058C115.357 32.6058 113.231 30.935 113.231 28.049C113.231 24.8158 115.553 23.3403 117.614 23.3403C120.326 23.3403 121.303 25.1413 121.541 26.2046L124.775 25.1847C124.276 22.9714 122.236 19.9986 117.614 19.9986C113.318 19.9986 109.672 23.2535 109.672 28.049C109.672 32.8445 113.231 36.0342 117.657 36.0342Z" fill="white"/>
<path d="M139.306 23.6007V20.3241H126.395V23.6007H131.125V35.7088H134.554V23.6007H139.306Z" fill="white"/>
<path d="M145.399 35.7088V20.3241H141.927V35.7088H145.399Z" fill="white"/>
<path d="M151.94 28.0056C151.94 24.7941 154.24 23.3403 156.388 23.3403C158.515 23.3403 160.815 24.7941 160.815 28.0056C160.815 31.217 158.515 32.6492 156.388 32.6492C154.24 32.6492 151.94 31.217 151.94 28.0056ZM148.381 28.0273C148.381 32.8879 152.048 36.0342 156.388 36.0342C160.706 36.0342 164.373 32.8879 164.373 28.0273C164.373 23.145 160.706 19.9986 156.388 19.9986C152.048 19.9986 148.381 23.145 148.381 28.0273Z" fill="white"/>
<path d="M180.725 35.7088V20.3241H177.296V29.6764L171.525 20.3241H167.358V35.7088H170.765V25.597L177.101 35.7088H180.725Z" fill="white"/>
<path d="M195.166 24.0997C194.841 22.2987 193.387 19.9986 189.546 19.9986C186.595 19.9986 184.035 22.0383 184.035 24.946C184.035 27.2244 185.619 28.9603 188.223 29.4594L190.327 29.85C191.347 30.0453 191.976 30.6095 191.976 31.3906C191.976 32.3454 191.152 32.9964 189.807 32.9964C187.702 32.9964 186.747 31.7595 186.617 30.3491L183.47 31.1085C183.687 33.2785 185.51 36.0342 189.763 36.0342C193.43 36.0342 195.448 33.5822 195.448 31.1736C195.448 28.982 193.929 27.0942 191 26.5517L188.939 26.1612C187.875 25.9659 187.42 25.4234 187.42 24.6856C187.42 23.8393 188.244 23.0365 189.524 23.0365C191.391 23.0365 191.976 24.2516 192.085 24.9677L195.166 24.0997Z" fill="white"/>
<defs>
<linearGradient id="paint0_linear_1_11803" x1="51.7922" y1="21.8072" x2="60.0061" y2="81.7508" gradientUnits="userSpaceOnUse">
<stop stop-color="#00C9FF"/>
<stop offset="1" stop-color="#64F38C"/>
</linearGradient>
<clipPath id="clip0_1_11803">
<rect width="66.931" height="35.7793" fill="white" transform="translate(0 0.00878906)"/>
</clipPath>
</defs>
</svg>
