<svg xmlns="http://www.w3.org/2000/svg" viewBox="0 0 1083.08 277.17"><defs><style>.cls-1{fill:#baba2d}.cls-2{fill:#79b530}.cls-3{fill:#FFF}</style></defs><title>Asset 1</title><g id="Layer_2" data-name="Layer 2"><g id="Layer_1-2" data-name="Layer 1"><path class="cls-1" d="M328.77 272.79c1.95 0 3.84.18 5.84.3v3.47h-15.75v-3.47c1.64-.12 3.1-.24 4.63-.24l-3.22-9.25h-17.36l-3 9.19c1.52.06 2.62.18 4.25.3v3.47h-14.75v-3.47c1.94-.12 3.77-.3 5.59-.3l12.11-35.05c-1-.06-2.62-.18-5.17-.31V234h13.33zM311.43 238L304 259.52h15.21l-7.6-21.52zm55.33 35c1 .06 2.56.12 4.75.3v3.29h-9.38v-6c-4.26 3-8.76 6-14 6h-.73c-5.54 0-7.42-1.7-7.42-8.27V249c-.67-.06-2.07-.13-5.05-.31v-3.28h9.67V266c0 5.42.73 6.62 4.87 6.62h.73c4 0 7.84-2.24 11.92-5.22V249c-.61-.06-2-.13-5-.31v-3.28h9.67zm35.36-.64c-2.37 3-6.63 4.8-11.07 4.8h-3.23c-8.16 0-11.87-3.9-11.87-11.75v-9.19c0-7.61 4.44-11.56 12.11-11.56h2.19a28.84 28.84 0 0 1 11.44 2.34v7.79h-3.47l-.49-5.05c-2.86-1.22-4.74-1.52-9.07-1.52-5.3 0-8.09 2.55-8.09 8.39v8.94c0 5.67 2.86 7.92 8 7.92h2.25c3.4 0 6.09-1 7.42-3.72l.24-.67h3.59zm18.2.85c2.19 0 3.59 0 5.78-.18v2.74a23.15 23.15 0 0 1-7.86 1.4h-.6c-4.69 0-6.58-2.31-6.58-8.34v-19.89h-4.14v-3.53h3.29c1 0 1.15-.37 1.15-1.28v-7.79a41.14 41.14 0 0 1 4.32-.42v9.49H425v3.53h-9.31v17.88c0 5.05.79 6.39 4.08 6.39zm20.27-.21c1.46.06 2.92.18 4.62.3v3.29h-13.87v-3.29c1.7-.12 3.17-.24 4.62-.3v-24c-1.4-.06-2.85-.19-4.25-.31v-3.28h8.88zm-5.36-36.21a2.9 2.9 0 0 1 5.78 0 2.91 2.91 0 0 1-5.78 0m27.39 40.38c-8.82 0-12.9-4.08-12.9-12.41v-7.54c0-8.47 4-12.54 12.9-12.54h3.17c8.7 0 12.72 4.07 12.72 12.54v7.54c0 8.33-4.08 12.41-12.72 12.41zm3-3.53c5.36 0 8.22-2.68 8.22-7.8v-9.79c0-5.18-2.86-7.85-8.22-7.85h-3.12c-5.35 0-8.15 2.67-8.15 7.85v9.79c0 5.12 2.8 7.8 8.15 7.8zm49.09-.73c.55.06 1.94.18 5 .36v3.28h-9.67v-21.3c0-5.48-.79-6.69-4.93-6.69h-.72c-4 0-7.85 2.25-11.93 5.29V273c1.46.06 2.92.18 4.63.3v3.28h-13.84v-3.28c1.71-.12 3.16-.24 4.63-.3v-24c-1.4-.06-2.86-.19-4.27-.31v-3.28h8.89v5.53c4.32-3.28 8.82-6.26 14.06-6.26h.67c5.3 0 7.49 1.94 7.49 8.27zm9.63-20.51c0-5.36 4-7.73 11.63-7.73h1c2.74 0 8.45.6 12.11 2.31v6.69h-3.71l-.43-4.32a19.63 19.63 0 0 0-8.27-1.52c-5.6 0-8.1 1.39-8.1 4.68v.49c0 3.72 2.06 3.83 10.53 5.54 8 1.58 10.65 2.93 10.65 8.09V268c0 6.56-3.77 9.13-11.14 9.13h-2.38c-2.85 0-9.37-.37-11.86-3.66v-6.2h3.53l.24 3.77c1.46 2.43 6 2.74 8 2.74h2.07c4.81 0 7.12-1.52 7.12-5.78v-.85c0-3.59-2.06-4.08-10.16-5.6-8.64-1.65-10.83-3.23-10.83-8.09zm86.17 2.74c-3.1.18-4.63.24-5.24.3a43.25 43.25 0 0 1-3.71 13l4.44 4.44c1.16 0 3.17.12 5.48.25v3.47h-7.92l-4.07-4.07c-2.43 3.7-5.23 4.44-12 4.44h-2.79c-9.37 0-14-2.43-14-12.11v-1.95c0-6.39 4.14-9.07 9.31-10.58-2.13-2.44-3.29-4.63-3.29-8v-.73c0-7.31 3.29-10.17 10.77-10.17h1.1a30.62 30.62 0 0 1 11.2 2.25v7.24H596l-.48-4.38a17.57 17.57 0 0 0-7.18-1.34h-.61c-4.56 0-6.33 1.89-6.33 6.51v.42c0 3.41 1.16 4.75 3.77 7.67l13.33 13.32a43.82 43.82 0 0 0 3.71-13.44h8.34zM575.09 264c0 6.87 3.35 8.95 9.37 8.95h2.8c5.17 0 7.18-.67 9.19-3.71l-14.12-14.18c-3.9 1.16-7.24 2.68-7.24 7.61zm97.86-26.57c-1.65.12-3.23.24-4.75.3l-13.32 38.82h-7.3l-13.33-38.88c-1.46 0-3-.12-4.56-.24V234h15.4v3.47c-2 .12-3.72.19-5.54.3l11.44 34h.73l11.32-34c-1.77-.06-3.65-.18-5.54-.3V234h15.46zM698.82 273c1 .06 2.42.12 4.56.3v3.29h-9.19v-4.68c-4.14 3.19-7.19 5.09-12.41 5.09h-1.09c-6.21 0-8.52-1.34-8.52-8.09v-1.65c0-6.93 3.47-7.9 8.64-8.46 4.81-.54 9.25-.84 13.39-1.21v-1.76c0-6.27-2.25-7.79-7.55-7.79a27.82 27.82 0 0 0-8.77 1.28l-.36 4.14h-3.4v-6.94a47.5 47.5 0 0 1 12.65-1.88h2c7.3 0 10 3.89 10 10.83zm-15.27.61c4 0 6.93-1.77 10.64-4.87v-8.51c-2.67.24-8.39.73-11.62 1.16-4.32.55-5.66 1.58-5.66 5.6v1.4c0 4.07 1.22 5.24 5.6 5.24zm32.37-.61c1.47.06 2.92.18 4.62.3v3.29h-13.87v-3.29c1.71-.12 3.17-.24 4.63-.3v-35.45c-1.39-.05-2.86-.18-4.26-.3V234h8.88zm39.68 0c1 .06 2.55.12 4.75.3v3.29H751v-6c-4.25 3-8.76 6-14 6h-.73c-5.54 0-7.43-1.7-7.43-8.27V249c-.67-.06-2.06-.13-5-.31v-3.28h9.68V266c0 5.42.73 6.62 4.87 6.62h.61c3.95 0 7.85-2.24 11.92-5.22V249c-.61-.06-2-.13-5-.31v-3.28h9.68zm36.15 0c1 .06 2.43.12 4.56.3v3.29h-9.19v-4.68c-4.12 3.19-7.18 5.09-12.41 5.09h-1.09c-6.21 0-8.52-1.34-8.52-8.09v-1.65c0-6.93 3.47-7.9 8.64-8.46 4.81-.54 9.26-.84 13.39-1.21v-1.76c0-6.27-2.25-7.79-7.55-7.79a27.74 27.74 0 0 0-8.76 1.28l-.36 4.14H767v-6.94a47.52 47.52 0 0 1 12.66-1.88h2c7.3 0 10 3.89 10 10.83zm-15.27.61c4 0 6.94-1.77 10.64-4.87v-8.51c-2.67.24-8.39.73-11.62 1.16-4.32.55-5.66 1.58-5.66 5.6v1.4c0 4.07 1.22 5.24 5.6 5.24zm35.23-.4c2.2 0 3.6 0 5.79-.18v2.74a23.12 23.12 0 0 1-7.85 1.4H809c-4.68 0-6.58-2.31-6.58-8.34v-19.89h-4.13v-3.53h3.29c1 0 1.15-.37 1.15-1.28v-7.79a41.1 41.1 0 0 1 4.32-.42v9.49h9.3v3.53h-9.3v17.88c0 5.05.78 6.39 4.07 6.39zM832 273c1.47.06 2.93.18 4.63.3v3.29h-13.9v-3.29c1.71-.12 3.17-.24 4.63-.3v-24c-1.4-.06-2.86-.19-4.27-.31v-3.28H832zm-5.35-36.21a2.9 2.9 0 1 1 2.92 2.62 2.69 2.69 0 0 1-2.92-2.62M854 277.17c-8.82 0-12.89-4.08-12.89-12.41v-7.54c0-8.47 4-12.54 12.89-12.54h3.16c8.7 0 12.72 4.07 12.72 12.54v7.54c0 8.33-4.08 12.41-12.72 12.41zm3-3.53c5.35 0 8.21-2.68 8.21-7.8v-9.79c0-5.18-2.86-7.85-8.21-7.85h-3.1c-5.36 0-8.16 2.67-8.16 7.85v9.79c0 5.12 2.81 7.8 8.16 7.8zm49.11-.73c.55.06 1.94.18 5 .36v3.28h-9.68v-21.3c0-5.48-.78-6.69-4.92-6.69h-.73c-4 0-7.85 2.25-11.94 5.29V273c1.46.06 2.92.18 4.62.3v3.28h-13.81v-3.28c1.71-.12 3.17-.24 4.63-.3v-24c-1.4-.06-2.87-.19-4.26-.31v-3.28h8.88v5.53c4.32-3.28 8.82-6.26 14.07-6.26h.66c5.29 0 7.49 1.94 7.49 8.27zm9.62-20.51c0-5.36 4-7.73 11.63-7.73h1c2.73 0 8.45.6 12.11 2.31v6.69h-3.72l-.43-4.32a19.67 19.67 0 0 0-8.28-1.53c-5.6 0-8.09 1.4-8.09 4.69v.49c0 3.72 2.08 3.83 10.53 5.54 8 1.58 10.64 2.93 10.64 8.09V268c0 6.56-3.77 9.13-11.14 9.13h-2.37c-2.86 0-9.37-.37-11.87-3.66v-6.2h3.54l.24 3.77c1.46 2.43 6 2.74 8 2.74h2.07c4.8 0 7.12-1.52 7.12-5.78v-.85c0-3.59-2.06-4.08-10.16-5.6-8.64-1.65-10.83-3.23-10.83-8.09z"/><path class="cls-2" d="M328.77 272.79c1.95 0 3.84.18 5.84.3v3.47h-15.75v-3.47c1.64-.12 3.1-.24 4.63-.24l-3.22-9.25h-17.36l-3 9.19c1.52.06 2.62.18 4.25.3v3.47h-14.75v-3.47c1.94-.12 3.77-.3 5.59-.3l12.11-35.05c-1-.06-2.62-.18-5.17-.31V234h13.33zM311.43 238L304 259.52h15.21l-7.6-21.52zm55.33 35c1 .06 2.56.12 4.75.3v3.29h-9.38v-6c-4.26 3-8.76 6-14 6h-.73c-5.54 0-7.42-1.7-7.42-8.27V249c-.67-.06-2.07-.13-5.05-.31v-3.28h9.67V266c0 5.42.73 6.62 4.87 6.62h.73c4 0 7.84-2.24 11.92-5.22V249c-.61-.06-2-.13-5-.31v-3.28h9.67zm35.36-.64c-2.37 3-6.63 4.8-11.07 4.8h-3.23c-8.16 0-11.87-3.9-11.87-11.75v-9.19c0-7.61 4.44-11.56 12.11-11.56h2.19a28.84 28.84 0 0 1 11.44 2.34v7.79h-3.47l-.49-5.05c-2.86-1.22-4.74-1.52-9.07-1.52-5.3 0-8.09 2.55-8.09 8.39v8.94c0 5.67 2.86 7.92 8 7.92h2.25c3.4 0 6.09-1 7.42-3.72l.24-.67h3.59zm18.2.85c2.19 0 3.59 0 5.78-.18v2.74a23.15 23.15 0 0 1-7.86 1.4h-.6c-4.69 0-6.58-2.31-6.58-8.34v-19.89h-4.14v-3.53h3.29c1 0 1.15-.37 1.15-1.28v-7.79a41.14 41.14 0 0 1 4.32-.42v9.49H425v3.53h-9.31v17.88c0 5.05.79 6.39 4.08 6.39zm20.27-.21c1.46.06 2.92.18 4.62.3v3.29h-13.87v-3.29c1.7-.12 3.17-.24 4.62-.3v-24c-1.4-.06-2.85-.19-4.25-.31v-3.28h8.88zm-5.36-36.21a2.9 2.9 0 0 1 5.78 0 2.91 2.91 0 0 1-5.78 0m27.39 40.38c-8.82 0-12.9-4.08-12.9-12.41v-7.54c0-8.47 4-12.54 12.9-12.54h3.17c8.7 0 12.72 4.07 12.72 12.54v7.54c0 8.33-4.08 12.41-12.72 12.41zm3-3.53c5.36 0 8.22-2.68 8.22-7.8v-9.79c0-5.18-2.86-7.85-8.22-7.85h-3.12c-5.35 0-8.15 2.67-8.15 7.85v9.79c0 5.12 2.8 7.8 8.15 7.8zm49.09-.73c.55.06 1.94.18 5 .36v3.28h-9.67v-21.3c0-5.48-.79-6.69-4.93-6.69h-.72c-4 0-7.85 2.25-11.93 5.29V273c1.46.06 2.92.18 4.63.3v3.28h-13.84v-3.28c1.71-.12 3.16-.24 4.63-.3v-24c-1.4-.06-2.86-.19-4.27-.31v-3.28h8.89v5.53c4.32-3.28 8.82-6.26 14.06-6.26h.67c5.3 0 7.49 1.94 7.49 8.27zm9.63-20.51c0-5.36 4-7.73 11.63-7.73h1c2.74 0 8.45.6 12.11 2.31v6.69h-3.71l-.43-4.32a19.63 19.63 0 0 0-8.27-1.52c-5.6 0-8.1 1.39-8.1 4.68v.49c0 3.72 2.06 3.83 10.53 5.54 8 1.58 10.65 2.93 10.65 8.09V268c0 6.56-3.77 9.13-11.14 9.13h-2.38c-2.85 0-9.37-.37-11.86-3.66v-6.2h3.53l.24 3.77c1.46 2.43 6 2.74 8 2.74h2.07c4.81 0 7.12-1.52 7.12-5.78v-.85c0-3.59-2.06-4.08-10.16-5.6-8.64-1.65-10.83-3.23-10.83-8.09zm86.17 2.74c-3.1.18-4.63.24-5.24.3a43.25 43.25 0 0 1-3.71 13l4.44 4.44c1.16 0 3.17.12 5.48.25v3.47h-7.92l-4.07-4.07c-2.43 3.7-5.23 4.44-12 4.44h-2.79c-9.37 0-14-2.43-14-12.11v-1.95c0-6.39 4.14-9.07 9.31-10.58-2.13-2.44-3.29-4.63-3.29-8v-.73c0-7.31 3.29-10.17 10.77-10.17h1.1a30.62 30.62 0 0 1 11.2 2.25v7.24H596l-.48-4.38a17.57 17.57 0 0 0-7.18-1.34h-.61c-4.56 0-6.33 1.89-6.33 6.51v.42c0 3.41 1.16 4.75 3.77 7.67l13.33 13.32a43.82 43.82 0 0 0 3.71-13.44h8.34zM575.09 264c0 6.87 3.35 8.95 9.37 8.95h2.8c5.17 0 7.18-.67 9.19-3.71l-14.12-14.18c-3.9 1.16-7.24 2.68-7.24 7.61zm97.86-26.57c-1.65.12-3.23.24-4.75.3l-13.32 38.82h-7.3l-13.33-38.88c-1.46 0-3-.12-4.56-.24V234h15.4v3.47c-2 .12-3.72.19-5.54.3l11.44 34h.73l11.32-34c-1.77-.06-3.65-.18-5.54-.3V234h15.46zM698.82 273c1 .06 2.42.12 4.56.3v3.29h-9.19v-4.68c-4.14 3.19-7.19 5.09-12.41 5.09h-1.09c-6.21 0-8.52-1.34-8.52-8.09v-1.65c0-6.93 3.47-7.9 8.64-8.46 4.81-.54 9.25-.84 13.39-1.21v-1.76c0-6.27-2.25-7.79-7.55-7.79a27.82 27.82 0 0 0-8.77 1.28l-.36 4.14h-3.4v-6.94a47.5 47.5 0 0 1 12.65-1.88h2c7.3 0 10 3.89 10 10.83zm-15.27.61c4 0 6.93-1.77 10.64-4.87v-8.51c-2.67.24-8.39.73-11.62 1.16-4.32.55-5.66 1.58-5.66 5.6v1.4c0 4.07 1.22 5.24 5.6 5.24zm32.37-.61c1.47.06 2.92.18 4.62.3v3.29h-13.87v-3.29c1.71-.12 3.17-.24 4.63-.3v-35.45c-1.39-.05-2.86-.18-4.26-.3V234h8.88zm39.68 0c1 .06 2.55.12 4.75.3v3.29H751v-6c-4.25 3-8.76 6-14 6h-.73c-5.54 0-7.43-1.7-7.43-8.27V249c-.67-.06-2.06-.13-5-.31v-3.28h9.68V266c0 5.42.73 6.62 4.87 6.62h.61c3.95 0 7.85-2.24 11.92-5.22V249c-.61-.06-2-.13-5-.31v-3.28h9.68zm36.15 0c1 .06 2.43.12 4.56.3v3.29h-9.19v-4.68c-4.12 3.19-7.18 5.09-12.41 5.09h-1.09c-6.21 0-8.52-1.34-8.52-8.09v-1.65c0-6.93 3.47-7.9 8.64-8.46 4.81-.54 9.26-.84 13.39-1.21v-1.76c0-6.27-2.25-7.79-7.55-7.79a27.74 27.74 0 0 0-8.76 1.28l-.36 4.14H767v-6.94a47.52 47.52 0 0 1 12.66-1.88h2c7.3 0 10 3.89 10 10.83zm-15.27.61c4 0 6.94-1.77 10.64-4.87v-8.51c-2.67.24-8.39.73-11.62 1.16-4.32.55-5.66 1.58-5.66 5.6v1.4c0 4.07 1.22 5.24 5.6 5.24zm35.23-.4c2.2 0 3.6 0 5.79-.18v2.74a23.12 23.12 0 0 1-7.85 1.4H809c-4.68 0-6.58-2.31-6.58-8.34v-19.89h-4.13v-3.53h3.29c1 0 1.15-.37 1.15-1.28v-7.79a41.1 41.1 0 0 1 4.32-.42v9.49h9.3v3.53h-9.3v17.88c0 5.05.78 6.39 4.07 6.39zM832 273c1.47.06 2.93.18 4.63.3v3.29h-13.9v-3.29c1.71-.12 3.17-.24 4.63-.3v-24c-1.4-.06-2.86-.19-4.27-.31v-3.28H832zm-5.35-36.21a2.9 2.9 0 1 1 2.92 2.62 2.69 2.69 0 0 1-2.92-2.62M854 277.17c-8.82 0-12.89-4.08-12.89-12.41v-7.54c0-8.47 4-12.54 12.89-12.54h3.16c8.7 0 12.72 4.07 12.72 12.54v7.54c0 8.33-4.08 12.41-12.72 12.41zm3-3.53c5.35 0 8.21-2.68 8.21-7.8v-9.79c0-5.18-2.86-7.85-8.21-7.85h-3.1c-5.36 0-8.16 2.67-8.16 7.85v9.79c0 5.12 2.81 7.8 8.16 7.8zm49.11-.73c.55.06 1.94.18 5 .36v3.28h-9.68v-21.3c0-5.48-.78-6.69-4.92-6.69h-.73c-4 0-7.85 2.25-11.94 5.29V273c1.46.06 2.92.18 4.62.3v3.28h-13.81v-3.28c1.71-.12 3.17-.24 4.63-.3v-24c-1.4-.06-2.87-.19-4.26-.31v-3.28h8.88v5.53c4.32-3.28 8.82-6.26 14.07-6.26h.66c5.29 0 7.49 1.94 7.49 8.27zm9.62-20.51c0-5.36 4-7.73 11.63-7.73h1c2.73 0 8.45.6 12.11 2.31v6.69h-3.72l-.43-4.32a19.67 19.67 0 0 0-8.28-1.53c-5.6 0-8.09 1.4-8.09 4.69v.49c0 3.72 2.08 3.83 10.53 5.54 8 1.58 10.64 2.93 10.64 8.09V268c0 6.56-3.77 9.13-11.14 9.13h-2.37c-2.86 0-9.37-.37-11.87-3.66v-6.2h3.54l.24 3.77c1.46 2.43 6 2.74 8 2.74h2.07c4.8 0 7.12-1.52 7.12-5.78v-.85c0-3.59-2.06-4.08-10.16-5.6-8.64-1.65-10.83-3.23-10.83-8.09z"/><path class="cls-3" d="M345.61 38.56c16.84 0 32.8 5.82 46.18 13.8V86l-15.53 2.39-10.15-28.92a79.38 79.38 0 0 0-20.5-2.8c-15.75 0-25.45 7.11-25.45 19.2 0 15.75 25.68 24.16 33.88 28.26 22.65 9.5 44.23 23.75 44.23 49.63 0 25-18.35 43.16-57 43.16-17.69 0-35.6-5.39-47.67-14v-35l15.31-2.16 11 28.26c5 2.38 14.24 4.76 19.85 4.76 17.49 0 31.51-6.7 31.51-18.35 0-17-25.69-25.46-40.57-32.8-16.61-8.2-37.76-17.92-37.76-48.1 0-27.42 25-41 52.64-41m124.11 141.56l-2.59 13.15h-51.78l-2.6-13.15 14.9-4.75V47.61H416.4l-2.39-12.3 28.06-3.24 12.73 3.24v140.03l14.89 4.75zm19.5-80.91c12.52-6.26 25.46-9.06 36.25-9.06 27.84 0 44.45 14.45 44.45 40.56v44.66L582 180.1l-2.58 13.15H552l-6.49-5c-6.47 4.53-15.32 7.33-27.84 7.33-19.41 0-36.46-10.35-36.46-30 0-29.35 34.32-36 61.51-36V122c0-12.31-8.85-18.34-18.35-18.34a72.09 72.09 0 0 0-16 2.36l-4.74 16.41-14.46-2.59zM542.71 143c-20.08 0-31.94 8.43-31.94 20.73s8.85 16.17 14.88 16.17c5.84 0 13.39-3.22 17.06-8.62zm82.77-50.51H654l-2.59 13.16h-25.93V168c0 7.34 5.4 11.86 9.28 11.86 5.4 0 12.52-4.09 18.34-10.35l9.29 11.43c-8.42 8.64-17.48 14.47-31.08 14.47-21.58 0-33-12.73-33-29.14v-60.63H586l-2.16-11.87 16.19-5 9.28-22.87 16.18 3.66zm80.52 0h28.49l-2.59 13.16H706V168c0 7.34 5.4 11.86 9.28 11.86 5.4 0 12.52-4.09 18.35-10.35l9.27 11.43c-8.41 8.64-17.47 14.47-31.05 14.47-21.59 0-33-12.73-33-29.14v-60.63h-12.38l-2.16-11.87 16.19-5 9.28-22.87L706 69.6zM840 170l7.35 11c-13.82 11.24-27.41 14.68-41.65 14.68-41 0-58.91-20.92-58.91-52.85 0-33 24.38-52.65 55.24-52.65 25.9 0 47 13.8 47 34.94a41.73 41.73 0 0 1-4.74 18.12h-68c.43 21.58 11.87 36.67 30.43 36.67A58.25 58.25 0 0 0 840 170m-18.77-40.14a32.06 32.06 0 0 0 .66-6.25c0-12.74-8.64-19.85-19.85-19.85-14 0-23.09 10.57-25 26.11zm113.13-7.38l-5-16a41.59 41.59 0 0 0-8.63-.87c-4.32 0-13.16 1.94-19.42 4.32v65.38l17.91 4.75-2.59 13.15h-53.46l-2.59-13.15 13.59-4.75v-69.7h-9.72l-2.58-13.16 28.06-2.36 8.85 5.6c6.68-2.38 17.9-5.6 27.84-5.6 6.68 0 14 1.49 22.22 4.73v25zm148.72-16.83l-2.59-13.16h-42.07l-2.59 13.16 14.67 4.75-22.88 65.59v-17.91l-24.37-47.68 16.61-4.75-2.59-13.16H961.6l-2.59 13.16 15.76 4.75 39.05 82.84 5.92 2.11-9.46 25.73-21.04 6.09 1.56 9.84h32.66l44.73-126.61 14.89-4.75z"/><path class="cls-2" d="M198.57 63.92a2.21 2.21 0 0 0-.88-1.61L107.31.23a1.68 1.68 0 0 0-.88-.23 1.65 1.65 0 0 0-.88.23l-62 30.83 155 100.64zM9.11 212.38A2.14 2.14 0 0 0 10 214l90.39 61.39a1.77 1.77 0 0 0 .87.24 1.68 1.68 0 0 0 .89-.24l62-30.13L9.11 144.62z"/><path class="cls-3" d="M208.26 171.88L15.09 46.07V34.66L.13 42.6a.24.24 0 0 0-.13.23v61.59l193.17 125.81v11.38l15-7.78a.26.26 0 0 0 .13-.24v-61.72"/></g></g></svg>