<svg viewBox="0 0 35 38" version="1.1" xmlns="http://www.w3.org/2000/svg"
                                 xmlns:xlink="http://www.w3.org/1999/xlink"  width="32" height="32">
                                <path d="M26.7272727,20.6229167 C26.7272727,15.5958333 22.6306818,11.4791667 17.5397727,11.4791667 C12.4488636,11.4791667 8.35227273,15.5958333 8.35227273,20.6229167 C8.35227273,25.6895833 12.4886364,29.7666667 17.5397727,29.7666667 C22.6306818,29.80625 26.7272727,25.6895833 26.7272727,20.6229167 Z M21.6761364,19.7520833 L17.8579545,23.5520833 C17.5795455,23.8291667 17.2215909,23.9875 16.8636364,23.9875 C16.5056818,23.9875 16.1477273,23.8291667 15.8693182,23.5520833 L13.4829545,21.1770833 C12.9261364,20.6229167 12.9261364,19.7125 13.4829545,19.1583333 C14.0397727,18.6041667 14.9545455,18.6041667 15.5113636,19.1583333 L16.9034091,20.54375 L19.7272727,17.7333333 C20.2840909,17.1791667 21.1988636,17.1791667 21.7556818,17.7333333 C22.2329545,18.2875 22.2329545,19.1979167 21.6761364,19.7520833 Z"
                                ></path>
                                <path d="M3.22159091,20.6229167 C3.22159091,12.7854167 9.625,6.37291667 17.5397727,6.37291667 L20.8409091,6.37291667 L20.8409091,7.99583333 C20.8409091,8.47083333 21.1193182,8.94583333 21.5568182,9.18333333 C21.7556818,9.30208333 21.9943182,9.34166667 22.1931818,9.34166667 C22.4318182,9.34166667 22.7102273,9.2625 22.9090909,9.14375 L27.9602273,5.9375 C28.3579545,5.7 28.5965909,5.26458333 28.5965909,4.78958333 C28.5965909,4.31458333 28.3579545,3.91875 27.9602273,3.64166667 L22.9090909,0.395833333 C22.5113636,0.11875 21.9545455,0.11875 21.5170455,0.35625 C21.0795455,0.59375 20.8011364,1.02916667 20.8011364,1.54375 L20.8011364,3.28541667 L17.5,3.28541667 C7.875,3.28541667 0.0795454545,11.04375 0.0795454545,20.6229167 C0.0795454545,21.49375 0.795454545,22.1666667 1.63068182,22.1666667 C2.46590909,22.1666667 3.22159091,21.4541667 3.22159091,20.6229167 Z"
                                ></path>
                                <path d="M28.6363636,11.6375 C29.0340909,12.1125 29.3920455,12.6270833 29.7102273,13.1416667 C29.9886364,13.6166667 30.5056818,13.89375 31.0227273,13.89375 C31.3011364,13.89375 31.5795455,13.8145833 31.8181818,13.65625 C32.1761364,13.4583333 32.4147727,13.1020833 32.4943182,12.70625 C32.5738636,12.3104167 32.5340909,11.875 32.2954545,11.5583333 C31.8977273,10.925 31.4602273,10.2916667 30.9829545,9.69791667 C30.7045455,9.38125 30.3465909,9.18333333 29.9488636,9.14375 C29.9090909,9.14375 29.8295455,9.14375 29.7897727,9.14375 C29.4318182,9.14375 29.1136364,9.2625 28.7954545,9.5 C28.4772727,9.77708333 28.2784091,10.1333333 28.2386364,10.5291667 C28.2386364,10.8854167 28.3579545,11.28125 28.6363636,11.6375 Z"
                                ></path>
                                <path d="M33.2102273,23.39375 C33.0909091,23.3541667 32.9318182,23.3541667 32.8125,23.3541667 C32.1363636,23.3541667 31.5,23.8291667 31.3011364,24.5020833 C31.1420455,25.0958333 30.9431818,25.6895833 30.6647727,26.24375 C30.3465909,27.0354167 30.7045455,27.9458333 31.5,28.2625 C31.6988636,28.3416667 31.8977273,28.38125 32.0965909,28.38125 C32.7329545,28.38125 33.2897727,28.025 33.5284091,27.43125 C33.8068182,26.71875 34.0852273,26.00625 34.2840909,25.29375 C34.4034091,24.8979167 34.3636364,24.4625 34.125,24.10625 C33.9659091,23.75 33.6079545,23.5125 33.2102273,23.39375 Z"
                                ></path>
                                <path d="M34.6022727,17.1 C34.4431818,16.3875 33.8068182,15.8729167 33.0909091,15.8729167 C32.9715909,15.8729167 32.8920455,15.8729167 32.7727273,15.9125 C32.375,15.9916667 32.0170455,16.2291667 31.7784091,16.5854167 C31.5397727,16.9416667 31.4602273,17.3375 31.5397727,17.7333333 C31.6590909,18.3270833 31.7386364,18.9604167 31.8181818,19.5541667 C31.8977273,20.3854167 32.6136364,21.0583333 33.4886364,20.9791667 C34.3238636,20.9 35,20.1875 34.9204545,19.3166667 C34.8409091,18.5645833 34.7215909,17.8125 34.6022727,17.1 Z"
                                ></path>
                                <path d="M29.1136364,29.8458333 C29.1136364,29.8458333 29.0738636,29.8458333 29.0738636,29.8458333 C28.6761364,29.8458333 28.2784091,30.04375 28,30.3208333 C27.5625,30.75625 27.125,31.1916667 26.6477273,31.5875 C25.9715909,32.1416667 25.8920455,33.0916667 26.4488636,33.7645833 C26.7272727,34.1208333 27.1647727,34.31875 27.6420455,34.31875 C28,34.31875 28.3579545,34.2 28.6363636,33.9625 C29.2329545,33.4875 29.7897727,32.9729167 30.3068182,32.41875 C30.5852273,32.1020833 30.7443182,31.70625 30.7045455,31.3104167 C30.7045455,30.9145833 30.5056818,30.51875 30.2272727,30.2416667 C29.8693182,30.0041667 29.5113636,29.8458333 29.1136364,29.8458333 Z"
                                ></path>
                                <path d="M4.05681818,25.4520833 C3.89772727,25.05625 3.61931818,24.7395833 3.26136364,24.58125 C3.0625,24.5020833 2.82386364,24.4229167 2.58522727,24.4229167 C2.38636364,24.4229167 2.22727273,24.4625 2.06818182,24.5020833 C1.27272727,24.7791667 0.835227273,25.6895833 1.15340909,26.48125 C1.39204545,27.19375 1.71022727,27.8666667 2.06818182,28.5395833 C2.34659091,29.0541667 2.86363636,29.3708333 3.46022727,29.3708333 C3.69886364,29.3708333 3.9375,29.2916667 4.17613636,29.2125 C4.93181818,28.8166667 5.25,27.8666667 4.85227273,27.1145833 C4.53409091,26.6 4.25568182,26.0458333 4.05681818,25.4520833 Z"
                                ></path>
                                <path d="M7.79545455,31.0729167 C7.51704545,30.7958333 7.11931818,30.6770833 6.76136364,30.6770833 C6.72159091,30.6770833 6.72159091,30.6770833 6.68181818,30.6770833 C6.28409091,30.6770833 5.88636364,30.875 5.60795455,31.1916667 C5.32954545,31.5083333 5.17045455,31.9041667 5.21022727,32.3 C5.21022727,32.6958333 5.40909091,33.0916667 5.6875,33.36875 C6.24431818,33.8833333 6.84090909,34.3583333 7.4375,34.79375 C7.71590909,34.9916667 7.99431818,35.0708333 8.35227273,35.0708333 C8.86931818,35.0708333 9.34659091,34.8333333 9.625,34.3979167 C9.86363636,34.0416667 9.94318182,33.6458333 9.90340909,33.25 C9.82386364,32.8541667 9.625,32.4979167 9.26704545,32.2604167 C8.75,31.9041667 8.27272727,31.5083333 7.79545455,31.0729167 Z"
                                ></path>
                                <path d="M23.5056818,34.1208333 C23.3068182,34.0020833 23.0681818,33.9625 22.8295455,33.9625 C22.6704545,33.9625 22.4715909,34.0020833 22.3125,34.0416667 C21.7159091,34.2395833 21.1193182,34.4375 20.5227273,34.55625 C20.125,34.6354167 19.7670455,34.8729167 19.5284091,35.2291667 C19.2897727,35.5854167 19.2102273,35.98125 19.3295455,36.3770833 C19.4886364,37.0895833 20.125,37.6041667 20.8409091,37.6041667 C20.9602273,37.6041667 21.0397727,37.6041667 21.1590909,37.5645833 C21.875,37.40625 22.6306818,37.2083333 23.3465909,36.93125 C23.7443182,36.7729167 24.0625,36.4958333 24.2215909,36.1395833 C24.3806818,35.7833333 24.4204545,35.3479167 24.3011364,34.9520833 C24.1420455,34.5958333 23.8636364,34.2791667 23.5056818,34.1208333 Z"
                                ></path>
                                <path d="M15.5511364,34.7145833 C14.9147727,34.6354167 14.3181818,34.5166667 13.7215909,34.3583333 C13.3238636,34.2395833 12.8863636,34.31875 12.5284091,34.5166667 C12.1704545,34.7145833 11.8920455,35.0708333 11.8125,35.4666667 C11.6931818,35.8625 11.7727273,36.2979167 11.9715909,36.6541667 C12.1704545,37.0104167 12.5284091,37.2875 12.9261364,37.3666667 C13.6420455,37.5645833 14.3977273,37.7229167 15.1534091,37.8020833 C15.5511364,37.8416667 15.9488636,37.7625 16.3068182,37.525 C16.625,37.2875 16.8636364,36.8916667 16.9034091,36.4958333 C16.9431818,36.1 16.8636364,35.6645833 16.5852273,35.3479167 C16.3465909,34.9916667 15.9886364,34.79375 15.5511364,34.7145833 Z"
                                ></path>
                                <title>ad-update</title>     
                            </svg>