<svg width="12" height="12" viewBox="0 0 12 12" fill="none" xmlns="http://www.w3.org/2000/svg">
<g clip-path="url(#clip0_109_13496)">
<path d="M5.99994 9.74968C5.64994 9.74968 5.34994 9.59968 5.14994 9.34968L0.199937 3.79968C-0.100063 3.39968 -0.0500628 2.79968 0.349937 2.49968C0.749937 2.19968 1.29994 2.19968 1.59994 2.59968L5.89994 7.49968C5.94994 7.54968 5.99994 7.54968 6.09994 7.49968L10.3999 2.59968C10.7499 2.19968 11.2999 2.14968 11.6999 2.49968C12.0999 2.84968 12.1499 3.39968 11.7999 3.79968C11.7999 3.79968 11.7999 3.79968 11.7499 3.84968L6.84994 9.39968C6.64994 9.59968 6.29994 9.74968 5.99994 9.74968Z" fill="black"/>
</g>
<defs>
<clipPath id="clip0_109_13496">
<rect width="12" height="12" fill="white"/>
</clipPath>
</defs>
</svg>
