  <svg viewBox="0 0 32 30" version="1.1" xmlns="http://www.w3.org/2000/svg"
                         xmlns:xlink="http://www.w3.org/1999/xlink" width="32" height="32">
                        <rect x="15.9230769" y="0.276923077" width="1" height="1"></rect>
                        <rect x="17.6307692" y="0.276923077" width="1" height="1"></rect>
                        <rect x="19.2923077" y="0.276923077" width="1" height="1"></rect>
                        <rect x="21" y="0.276923077" width="1" height="1"></rect>
                        <path d="M5.35384615,22.5230769 L5.35384615,25.7538462 C2.4,23.0769231 0.692307692,19.2923077 0.692307692,15.2307692 C0.692307692,7.33846154 7.10769231,0.969230769 14.9538462,0.969230769 L14.9538462,0.276923077 C6.69230769,0.276923077 0,6.96923077 0,15.2307692 C0,19.4307692 1.75384615,23.3538462 4.8,26.1692308 L1.75384615,26.1692308 L1.75384615,26.8615385 L6.09230769,26.8615385 L6.09230769,22.5230769 L5.35384615,22.5230769 Z"
                        ></path>
                        <path d="M25.2,3.83076923 L28.2461538,3.83076923 L28.2461538,3.13846154 L23.9076923,3.13846154 L23.9076923,7.47692308 L24.6,7.47692308 L24.6,4.24615385 C27.6,6.92307692 29.3076923,10.7076923 29.3076923,14.7692308 C29.3076923,22.6615385 22.8923077,29.0307692 15.0461538,29.0307692 L15.0461538,29.7230769 C23.3076923,29.7230769 30,23.0307692 30,14.7692308 C30,10.5692308 28.2461538,6.64615385 25.2,3.83076923 Z"
                        ></path>
                        <rect x="13.3846154" y="29.0307692" width="1" height="1"></rect>
                        <rect x="11.6769231" y="29.0307692" width="1" height="1"></rect>
                        <rect x="10.0153846" y="29.0307692" width="1" height="1"></rect>
                        <rect x="8.30769231" y="29.0307692" width="1" height="1"></rect>
                        <path d="M13.8,13.2 C13.9846154,13.0153846 14.4,13.0153846 14.5846154,13.2 C14.6307692,13.2461538 14.7230769,13.3384615 14.7230769,13.4769231 L15.4153846,13.4769231 C15.4153846,13.1538462 15.2769231,12.8769231 15.0461538,12.6923077 C14.9076923,12.5538462 14.7230769,12.5076923 14.5384615,12.4615385 L14.5384615,11.9538462 L13.8461538,11.9538462 L13.8461538,12.4615385 C13.6615385,12.5076923 13.4769231,12.6 13.3384615,12.6923077 C13.1076923,12.9230769 12.9692308,13.2 12.9692308,13.4769231 C12.9692308,13.8 13.1076923,14.0769231 13.3384615,14.2615385 C13.5692308,14.4461538 13.8461538,14.5846154 14.1692308,14.5846154 C14.3076923,14.5846154 14.4461538,14.6307692 14.5384615,14.7230769 C14.5846154,14.7692308 14.6769231,14.8615385 14.6769231,15 C14.6769231,15.1384615 14.5846154,15.2307692 14.5384615,15.2769231 C14.3538462,15.4615385 13.9384615,15.4615385 13.7538462,15.2769231 C13.7076923,15.2307692 13.6153846,15.1384615 13.6153846,15 L12.9230769,15 C12.9230769,15.2769231 13.0615385,15.6 13.2923077,15.7846154 C13.4307692,15.9230769 13.6153846,15.9692308 13.8,16.0615385 L13.8,16.5692308 L14.4923077,16.5692308 L14.4923077,16.0615385 C14.6769231,16.0153846 14.8615385,15.9230769 15,15.7846154 C15.2307692,15.6 15.3692308,15.2769231 15.3692308,15 C15.3692308,14.7230769 15.2307692,14.4 15,14.2153846 C14.7692308,14.0307692 14.4923077,13.8923077 14.1692308,13.8923077 C14.0307692,13.8923077 13.8923077,13.8461538 13.8,13.7538462 C13.7538462,13.7076923 13.6615385,13.6153846 13.6615385,13.4769231 C13.6615385,13.3384615 13.7538462,13.2461538 13.8,13.2 Z"
                        ></path>
                        <path d="M8.4,21.5076923 L23.4461538,21.5076923 C24.3692308,21.5076923 25.1076923,20.7692308 25.1076923,19.8461538 L25.1076923,12 C25.1076923,11.1230769 24.4153846,10.3846154 23.5384615,10.3384615 L23.5384615,10.2 C23.5384615,9.23076923 22.7538462,8.49230769 21.8307692,8.49230769 L6.6,8.49230769 C5.63076923,8.49230769 4.89230769,9.27692308 4.89230769,10.2 L4.89230769,18.1846154 C4.89230769,19.1538462 5.67692308,19.8923077 6.6,19.8923077 L6.73846154,19.8923077 C6.78461538,20.7692308 7.52307692,21.5076923 8.4,21.5076923 Z M5.58461538,18.1846154 L5.58461538,10.2461538 C5.58461538,9.69230769 6.04615385,9.23076923 6.6,9.23076923 L21.7846154,9.23076923 C22.3384615,9.23076923 22.8,9.69230769 22.8,10.2461538 L22.8,18.2307692 C22.8,18.7846154 22.3384615,19.2461538 21.7846154,19.2461538 L6.6,19.2461538 C6.04615385,19.2 5.58461538,18.7384615 5.58461538,18.1846154 Z M21.7846154,19.8923077 C22.7538462,19.8923077 23.4923077,19.1076923 23.4923077,18.1846154 L23.4923077,11.0307692 C24,11.0769231 24.3692308,11.4923077 24.3692308,12 L24.3692308,19.8 C24.3692308,20.3538462 23.9076923,20.7692308 23.4,20.7692308 L8.4,20.7692308 C7.89230769,20.7692308 7.47692308,20.3538462 7.43076923,19.8923077 L21.7846154,19.8923077 Z"
                        ></path>
                        <path d="M20.0307692,10.9846154 L20.0307692,10.6153846 L8.4,10.6153846 L8.4,10.9384615 C8.4,11.4923077 7.93846154,11.9538462 7.38461538,11.9538462 L7.06153846,11.9538462 L7.06153846,16.3846154 L7.38461538,16.3846154 C7.93846154,16.3846154 8.4,16.8461538 8.4,17.4 L8.4,17.7230769 L20.0307692,17.7230769 L20.0307692,17.4 C20.0307692,16.8461538 20.4923077,16.3846154 21.0461538,16.3846154 L21.3692308,16.3846154 L21.3692308,12 L21.0461538,12 C20.4923077,12 20.0307692,11.5384615 20.0307692,10.9846154 Z M20.7230769,15.7846154 C20.0307692,15.9230769 19.5230769,16.4307692 19.3846154,17.1230769 L9.04615385,17.1230769 C8.90769231,16.4307692 8.4,15.9230769 7.70769231,15.7846154 L7.70769231,12.6461538 C8.4,12.5076923 8.90769231,12 9.04615385,11.3076923 L19.3846154,11.3076923 C19.5230769,12 20.0307692,12.5076923 20.7230769,12.6461538 L20.7230769,15.7846154 Z"
                        ></path>
                        <title>asset-auction</asset-aucti></title>
                    </svg>