<svg width="39" height="29" viewBox="0 0 39 29" fill="none" xmlns="http://www.w3.org/2000/svg">
<path d="M35.8141 23.9828C35.8141 24.603 35.5677 25.1978 35.1291 25.6364C34.6906 26.0749 34.0957 26.3213 33.4755 26.3213H5.41252C4.79229 26.3213 4.19746 26.0749 3.75889 25.6364C3.32032 25.1978 3.07393 24.603 3.07393 23.9828V9.95125C3.07393 9.33102 3.32032 8.7362 3.75889 8.29763C4.19746 7.85906 4.79229 7.61267 5.41252 7.61267H8.15334C10.0131 7.61165 11.7963 6.87228 13.1111 5.55706L15.0522 3.62071C15.4895 3.18326 16.0823 2.93688 16.7009 2.93551H22.1825C22.8027 2.93564 23.3974 3.18211 23.8359 3.62071L25.7722 5.55706C26.4238 6.20885 27.1975 6.72588 28.0489 7.07859C28.9004 7.4313 29.8131 7.61278 30.7347 7.61267H33.4755C34.0957 7.61267 34.6906 7.85906 35.1291 8.29763C35.5677 8.7362 35.8141 9.33102 35.8141 9.95125V23.9828ZM5.41252 5.27409C4.17206 5.27409 2.9824 5.76686 2.10526 6.644C1.22812 7.52114 0.735352 8.71079 0.735352 9.95125L0.735352 23.9828C0.735352 25.2232 1.22812 26.4129 2.10526 27.29C2.9824 28.1671 4.17206 28.6599 5.41252 28.6599H33.4755C34.716 28.6599 35.9056 28.1671 36.7828 27.29C37.6599 26.4129 38.1527 25.2232 38.1527 23.9828V9.95125C38.1527 8.71079 37.6599 7.52114 36.7828 6.644C35.9056 5.76686 34.716 5.27409 33.4755 5.27409H30.7347C29.4943 5.27382 28.3049 4.78088 27.4279 3.90368L25.4916 1.96733C24.6147 1.09013 23.4252 0.597189 22.1848 0.596924H16.7032C15.4628 0.597189 14.2734 1.09013 13.3964 1.96733L11.4601 3.90368C10.5832 4.78088 9.3937 5.27382 8.15334 5.27409H5.41252Z" fill="#7AB645"/>
<path d="M19.4441 21.6442C17.8935 21.6442 16.4064 21.0282 15.31 19.9318C14.2136 18.8354 13.5976 17.3483 13.5976 15.7977C13.5976 14.2471 14.2136 12.7601 15.31 11.6636C16.4064 10.5672 17.8935 9.95125 19.4441 9.95125C20.9947 9.95125 22.4817 10.5672 23.5782 11.6636C24.6746 12.7601 25.2906 14.2471 25.2906 15.7977C25.2906 17.3483 24.6746 18.8354 23.5782 19.9318C22.4817 21.0282 20.9947 21.6442 19.4441 21.6442ZM19.4441 23.9827C21.6149 23.9827 23.6968 23.1204 25.2318 21.5854C26.7668 20.0504 27.6291 17.9685 27.6291 15.7977C27.6291 13.6269 26.7668 11.545 25.2318 10.01C23.6968 8.47502 21.6149 7.61267 19.4441 7.61267C17.2733 7.61267 15.1914 8.47502 13.6564 10.01C12.1214 11.545 11.2591 13.6269 11.2591 15.7977C11.2591 17.9685 12.1214 20.0504 13.6564 21.5854C15.1914 23.1204 17.2733 23.9827 19.4441 23.9827ZM7.75118 11.1205C7.75118 11.4307 7.62799 11.7281 7.4087 11.9474C7.18942 12.1666 6.892 12.2898 6.58189 12.2898C6.27177 12.2898 5.97436 12.1666 5.75508 11.9474C5.53579 11.7281 5.4126 11.4307 5.4126 11.1205C5.4126 10.8104 5.53579 10.513 5.75508 10.2937C5.97436 10.0744 6.27177 9.95125 6.58189 9.95125C6.892 9.95125 7.18942 10.0744 7.4087 10.2937C7.62799 10.513 7.75118 10.8104 7.75118 11.1205Z" fill="#7AB645"/>
</svg>
