<!-- Generated by IcoMoon.io -->
<svg version="1.1" xmlns="http://www.w3.org/2000/svg" fill="#a3cf27" width="32" height="32" viewBox="-2 -2 32 39">
<title>car-buy</title>
<path d="M31.887 7.836l-2.427-3.751c-0.221-0.276-0.496-0.276-0.772-0.055l-5.792 3.751c-0.165 0.11-0.331 0.331-0.441 0.552l-0.662 1.876c-0.055 0.221-0.055 0.496 0.055 0.662l0.221 0.331c-0.662 0.441-1.324 1.158-1.71 1.986l-0.276-0.938c-0.331-1.158-1.545-2.041-2.813-2.151h-10.812c-1.214 0.055-2.427 0.993-2.813 2.151l-0.772 2.482h-1.269c-0.772 0-1.379 0.607-1.379 1.379 0 0.717 0.607 1.324 1.324 1.379-0.938 0.386-1.545 1.324-1.545 2.317v4.634c0 0.607 0.496 1.048 1.048 1.103v2.262c0 0.441 0.386 0.827 0.827 0.827h1.71c0.441 0 0.827-0.386 0.827-0.827v-2.262h14.894v2.262c0 0.441 0.386 0.827 0.827 0.827h1.765c0.441 0 0.827-0.386 0.827-0.827v-2.262c0.607 0 1.048-0.496 1.048-1.103v-4.689c0-1.048-0.607-1.931-1.545-2.372 0.717-0.055 1.324-0.662 1.324-1.379 0-0.772-0.607-1.379-1.379-1.379h-1.324c-0.165-1.379 0.827-2.372 1.6-2.924l0.331 0.496c0.11 0.165 0.331 0.331 0.552 0.331l1.931 0.055c0.221 0 0.496-0.055 0.662-0.221l5.737-3.751c0.331-0.11 0.441-0.496 0.221-0.772zM4.526 12.414c0.221-0.827 1.214-1.489 2.041-1.489h10.647c0.883 0 1.82 0.717 2.041 1.489l1.048 3.751h-16.88l1.103-3.751zM3.643 22.068c-0.772 0-1.379-0.607-1.379-1.379s0.607-1.379 1.379-1.379 1.379 0.607 1.379 1.379-0.607 1.379-1.379 1.379zM15.559 23.613h-7.392v-1.82h7.392v1.82zM21.516 20.689c0 0.772-0.607 1.379-1.379 1.379s-1.379-0.607-1.379-1.379 0.607-1.379 1.379-1.379c0.717 0 1.379 0.607 1.379 1.379zM24.109 11.476c-0.331 0.221-0.827 0.221-1.158-0.055 0.165-0.11 0.276-0.165 0.276-0.165 0.221-0.055 0.276-0.276 0.221-0.496-0.055-0.11-0.221-0.221-0.331-0.221-0.055 0-0.11 0-0.165 0.055-0.11 0.055-0.276 0.11-0.386 0.221-0.055-0.331 0.11-0.717 0.441-0.938 0.441-0.276 1.048-0.165 1.324 0.276 0.386 0.386 0.276 0.993-0.221 1.324zM28.798 9.766l-0.441 0.276-0.221-0.386c-0.276 0.165-0.607 0.276-0.827 0.276l-0.221-0.552c0.276-0.055 0.552-0.11 0.827-0.276s0.331-0.331 0.221-0.496c-0.11-0.165-0.331-0.165-0.662-0.11-0.552 0.11-0.993 0.11-1.269-0.276-0.221-0.386-0.165-0.827 0.221-1.214l-0.276-0.441 0.441-0.276 0.221 0.386c0.276-0.165 0.496-0.221 0.717-0.276l0.221 0.552c-0.165 0.055-0.386 0.11-0.717 0.276-0.276 0.165-0.276 0.331-0.221 0.496 0.11 0.11 0.276 0.11 0.772 0.055 0.552-0.165 0.938-0.055 1.214 0.331s0.221 0.883-0.276 1.269l0.276 0.386z"></path>
</svg>
