<svg viewBox="0 0 35 34" version="1.1" xmlns="http://www.w3.org/2000/svg"
                                 xmlns:xlink="http://www.w3.org/1999/xlink" width="32" height="32" >
                                <path d="M18.1730769,0 C8.89471154,0 1.34615385,5.948 1.34615385,13.2593333 C1.34615385,20.5706667 8.89471154,26.5186667 18.1730769,26.5186667 C19.7972115,26.5186667 21.4193269,26.3286667 23.0057692,25.952 L27.6533654,29.6333333 C27.8963462,29.8266667 28.1945192,29.9253333 28.4940385,29.9253333 C28.6925962,29.9253333 28.8918269,29.882 29.0769231,29.794 C29.5433654,29.572 29.8401923,29.1046667 29.8401923,28.592 L29.8401923,22.8066667 C33.1288462,20.3133333 35,16.868 35,13.2593333 C35,5.948 27.4514423,0 18.1730769,0 Z M25.5769231,17.3333333 L10.7692308,17.3333333 C10.0261538,17.3333333 9.42307692,16.736 9.42307692,16 C9.42307692,15.264 10.0261538,14.6666667 10.7692308,14.6666667 L25.5769231,14.6666667 C26.32,14.6666667 26.9230769,15.264 26.9230769,16 C26.9230769,16.736 26.32,17.3333333 25.5769231,17.3333333 Z M25.5769231,12 L10.7692308,12 C10.0261538,12 9.42307692,11.4026667 9.42307692,10.6666667 C9.42307692,9.93066667 10.0261538,9.33333333 10.7692308,9.33333333 L25.5769231,9.33333333 C26.32,9.33333333 26.9230769,9.93066667 26.9230769,10.6666667 C26.9230769,11.4026667 26.32,12 25.5769231,12 Z"
                                ></path>
                                <path d="M1.41480769,19.004 C0.497403846,20.2853333 0,21.7386667 0,23.2593333 C0,25.5433333 1.13615385,27.72 3.14125,29.3246667 L3.14125,32.5926667 C3.14125,33.1053333 3.43807692,33.5726667 3.90451923,33.7946667 C4.08961538,33.8833333 4.28884615,33.926 4.48740385,33.926 C4.78759615,33.926 5.08509615,33.8266667 5.32875,33.634 L7.95846154,31.5506667 C8.88394231,31.7506667 9.82625,31.852 10.7699038,31.852 C14.5236538,31.852 17.8681731,30.344 19.8052885,27.9386667 C19.2668269,27.9766667 18.7229808,28 18.1730769,28 C10.6426923,28 4.16769231,24.284 1.41480769,19.004 Z"
                                ></path>
                                <title>chat-box</title>  
                            </svg>