<!-- Generated by IcoMoon.io -->
<svg version="1.1" xmlns="http://www.w3.org/2000/svg" fill="#a3cf27" width="32" height="32" viewBox="-2 -2 32 39">
<title>desktop</title>
<path d="M27.687 23.469c-1.729 0-3.043 1.176-3.043 2.559 0 0.277 0.207 0.484 0.484 0.484h5.256c0.138 0 0.207-0.069 0.346-0.138 0.069-0.069 0.138-0.207 0.138-0.346-0.069-1.383-1.452-2.559-3.181-2.559zM25.613 25.544c0.277-0.692 1.106-1.176 2.075-1.176s1.798 0.484 2.075 1.176h-4.149z"></path>
<path d="M14.202 20.426c0.484 0 0.83-0.346 0.83-0.83s-0.346-0.83-0.83-0.83-0.83 0.346-0.83 0.83c0 0.484 0.415 0.83 0.83 0.83zM14.202 19.181c0.277 0 0.484 0.207 0.484 0.484s-0.207 0.415-0.484 0.415-0.484-0.207-0.484-0.484 0.277-0.415 0.484-0.415z"></path>
<path d="M22.017 26.097c-0.069-0.138-0.207-0.207-0.415-0.207h-15.076c-0.138 0-0.277 0.069-0.415 0.207l-1.452 2.351c-0.069 0.138-0.069 0.346 0 0.484s0.207 0.207 0.415 0.207h18.050c0.138 0 0.346-0.069 0.415-0.207s0.069-0.346 0-0.484l-1.521-2.351zM5.903 28.31l0.899-1.452h14.592l0.899 1.452h-16.39z"></path>
<path d="M25.059 4.658h-21.991c-0.069 0-0.207 0.069-0.207 0.207v11.964c0 0.069 0.069 0.207 0.207 0.207h21.991c0.069 0 0.207-0.069 0.207-0.207v-12.033c0-0.069-0.069-0.138-0.207-0.138z"></path>
<path d="M9.776 24.23h-1.176c-0.277 0-0.484 0.207-0.484 0.484s0.207 0.484 0.484 0.484h10.996c0.277 0 0.484-0.207 0.484-0.484s-0.207-0.484-0.484-0.484h-0.899c-0.761-0.622-1.037-1.66-1.106-2.559h8.299c0.622 0 1.176-0.553 1.176-1.176v-16.459c0-0.622-0.553-1.176-1.176-1.176h-23.582c-0.622 0-1.176 0.553-1.176 1.176v16.459c0 0.622 0.553 1.176 1.176 1.176h8.575c-0.069 0.899-0.415 1.936-1.106 2.559zM10.952 24.23c0.622-0.899 0.83-2.006 0.83-2.905h4.772c0.069 0.899 0.277 2.006 0.83 2.905h-6.431zM2.030 4.036c0-0.138 0.138-0.277 0.277-0.277h23.582c0.138 0 0.277 0.138 0.277 0.277v13.969h-24.135v-13.969zM2.307 20.772c-0.138 0-0.277-0.138-0.277-0.277v-1.936h24.066v1.936c0 0.138-0.138 0.277-0.277 0.277h-8.783c0 0 0 0 0 0h-14.73z"></path>
</svg>
