<!-- Generated by IcoMoon.io -->
<svg version="1.1" xmlns="http://www.w3.org/2000/svg" fill = "#a3cf27" width="32" height="32" viewBox="0 0 32 32">
<title>boat</title>
<path d="M27.898 18.237c-0.569-0.61-0.854-0.976-1.139-1.22-0.041-0.041-0.081-0.041-0.163-0.041 0 0-1.505 0-1.993 0h-21.477c-0.081 0-0.122 0.041-0.163 0.081s-0.041 0.122 0 0.203c0.325 0.773 0.936 1.546 1.668 2.197 0.773 0.651 1.546 1.017 2.156 1.017 3.254 0 8.745 0 13.464 0 3.579 0 6.712 0 8.176 0 0.488 0 0.651-0.285 0.651-0.529-0.041-0.081 0-0.407-1.18-1.708zM7.194 18.725h-0.651c-0.203 0-0.366-0.163-0.366-0.366s0.163-0.366 0.366-0.366h0.651c0.203 0 0.366 0.163 0.366 0.366s-0.163 0.366-0.366 0.366zM10.692 18.725h-0.651c-0.203 0-0.366-0.163-0.366-0.366s0.163-0.366 0.366-0.366h0.651c0.203 0 0.366 0.163 0.366 0.366s-0.163 0.366-0.366 0.366zM14.149 18.725h-0.651c-0.203 0-0.366-0.163-0.366-0.366s0.163-0.366 0.366-0.366h0.651c0.203 0 0.366 0.163 0.366 0.366 0.041 0.203-0.163 0.366-0.366 0.366zM17.647 18.725h-0.651c-0.203 0-0.366-0.163-0.366-0.366s0.163-0.366 0.366-0.366h0.651c0.203 0 0.366 0.163 0.366 0.366s-0.163 0.366-0.366 0.366z"></path>
<path d="M3.126 15.959h22.535c0.081 0 0.122-0.041 0.163-0.122s0-0.122-0.041-0.203l-0.895-1.058h1.912c0.041 0 0.041 0 0.041-0.041 0.041-0.041 0.081-0.122 0.529-1.342 0.244-0.61 0.529-1.546 0.529-1.546 0-0.041 0-0.041 0-0.081s-0.041-0.041-0.081-0.041h-12.447c-1.342 0-5.207 2.522-5.207 2.522l-6.59-0.691c-0.163 0-0.285 0.081-0.285 0.244s0.081 0.285 0.244 0.285l0.61 0.081v1.261c-0.61 0.163-0.936 0.325-1.098 0.366v0c-0.081 0.041-0.122 0.122-0.122 0.203 0 0.122 0.081 0.163 0.203 0.163zM17.444 12.502c0-0.041 0.041-0.081 0.081-0.081h4.962c0.041 0 0.041 0 0.081 0.041l0.814 1.505c0 0.041 0 0.041 0 0.081s-0.041 0.041-0.041 0.041h-5.817c-0.041 0-0.081-0.041-0.081-0.081v-1.505zM12.156 13.966c0 0 2.197-1.505 3.051-1.505h1.342c0.041 0 0.081 0.041 0.081 0.081v1.505c0 0.041-0.041 0.081-0.081 0.081h-4.352c-0.041 0-0.041 0-0.081-0.041 0-0.081 0-0.122 0.041-0.122zM6.217 14.17l1.708 0.244c-0.651 0.122-1.22 0.203-1.708 0.325v-0.569zM4.672 14.007l1.017 0.081v0.732c-0.366 0.081-0.732 0.163-1.017 0.244v-1.058z"></path>
</svg>
