<svg xmlns="http://www.w3.org/2000/svg" width="17" height="15" viewBox="0 0 17 15" fill="none">
<path d="M9.47745 8.4279L7.76329 7.71956C7.68672 7.6888 7.62097 7.63606 7.57433 7.56799C7.52769 7.49992 7.50225 7.41957 7.5012 7.33706C7.5012 7.2281 7.54449 7.12361 7.62153 7.04656C7.69858 6.96951 7.80308 6.92623 7.91204 6.92623H9.60495C9.79281 6.92623 9.97298 6.8516 10.1058 6.71876C10.2387 6.58593 10.3133 6.40576 10.3133 6.2179C10.3133 6.03003 10.2387 5.84987 10.1058 5.71703C9.97298 5.58419 9.79281 5.50956 9.60495 5.50956H9.1587C9.14661 5.50956 9.13464 5.50718 9.12346 5.50255C9.11229 5.49793 9.10214 5.49114 9.09359 5.48259C9.08504 5.47404 9.07826 5.46389 9.07363 5.45272C9.069 5.44155 9.06662 5.42957 9.06662 5.41748V5.1979C9.06662 5.01003 8.99199 4.82987 8.85915 4.69703C8.72632 4.56419 8.54615 4.48956 8.35829 4.48956C8.17042 4.48956 7.99026 4.56419 7.85742 4.69703C7.72458 4.82987 7.64995 5.01003 7.64995 5.1979V5.50248C7.64878 5.51764 7.64356 5.53221 7.63484 5.54467C7.62612 5.55713 7.61422 5.56702 7.60037 5.57331C7.20829 5.63752 6.84814 5.82872 6.5753 6.11752C6.30245 6.40632 6.13201 6.77674 6.09016 7.17183C6.04832 7.56693 6.1374 7.96483 6.3437 8.30438C6.54999 8.64393 6.8621 8.90632 7.23204 9.05123L8.95329 9.75956C9.02985 9.79032 9.0956 9.84306 9.14224 9.91113C9.18888 9.9792 9.21433 10.0596 9.21537 10.1421C9.21537 10.251 9.17209 10.3555 9.09504 10.4326C9.01799 10.5096 8.9135 10.5529 8.80454 10.5529H7.08329C6.89542 10.5529 6.71526 10.6275 6.58242 10.7604C6.44958 10.8932 6.37495 11.0734 6.37495 11.2612C6.37495 11.4491 6.44958 11.6293 6.58242 11.7621C6.71526 11.8949 6.89542 11.9696 7.08329 11.9696H7.53662C7.55916 11.9696 7.58078 11.9785 7.59672 11.9945C7.61266 12.0104 7.62162 12.032 7.62162 12.0546V12.3025C7.62162 12.4903 7.69625 12.6705 7.82909 12.8033C7.96192 12.9362 8.14209 13.0108 8.32995 13.0108C8.51781 13.0108 8.69798 12.9362 8.83082 12.8033C8.96366 12.6705 9.03829 12.4903 9.03829 12.3025V12.005C9.03962 11.988 9.04561 11.9718 9.05562 11.958C9.06562 11.9443 9.07923 11.9336 9.09495 11.9271C9.48621 11.8608 9.84491 11.6679 10.116 11.3782C10.3872 11.0884 10.5558 10.7177 10.596 10.3229C10.6362 9.92813 10.5458 9.53105 10.3386 9.19259C10.1314 8.85412 9.81898 8.59296 9.44912 8.44915L9.47745 8.4279Z" fill="black"/>
<path d="M17 3.4625C16.991 3.099 16.8426 2.75286 16.5855 2.49575C16.3284 2.23864 15.9823 2.09023 15.6187 2.08125H8.5C8.4338 2.08057 8.36905 2.06172 8.31284 2.02674C8.25663 1.99176 8.2111 1.94201 8.18125 1.88292L7.65708 0.8275C7.53909 0.599698 7.36146 0.408211 7.14314 0.273479C6.92483 0.138746 6.67402 0.0658255 6.4175 0.0625001H1.41667C1.047 0.0623845 0.69193 0.206769 0.427249 0.464833C0.162567 0.722898 0.00924165 1.0742 0 1.44375L0 13.5562C0.00924165 13.9258 0.162567 14.2771 0.427249 14.5352C0.69193 14.7932 1.047 14.9376 1.41667 14.9375H15.6542C16.0114 14.9197 16.3488 14.7674 16.5984 14.5112C16.848 14.255 16.9915 13.9139 17 13.5562V3.4625ZM15.6187 13.1667C15.6187 13.2606 15.5814 13.3507 15.515 13.4171C15.4486 13.4835 15.3585 13.5208 15.2646 13.5208L1.80625 13.5562C1.71232 13.5562 1.62224 13.5189 1.55582 13.4525C1.4894 13.3861 1.45208 13.296 1.45208 13.2021L1.41667 1.83333C1.41667 1.7394 1.45398 1.64932 1.5204 1.5829C1.58682 1.51648 1.6769 1.47917 1.77083 1.47917H6.205C6.27035 1.47953 6.33428 1.49834 6.38941 1.53342C6.44455 1.56851 6.48866 1.61845 6.51667 1.6775L7.06208 2.75417C7.17506 2.98447 7.35055 3.17834 7.5685 3.31362C7.78645 3.4489 8.03806 3.52013 8.29458 3.51917H15.2646C15.3585 3.51917 15.4486 3.55648 15.515 3.6229C15.5814 3.68932 15.6187 3.7794 15.6187 3.87333V13.1667Z" fill="black"/>
</svg>