<!-- <svg xmlns="http://www.w3.org/2000/svg" height="24px" viewBox="0 0 24 24" width="24px" fill="#ffffff"><path d="M0 0h24v24H0V0z" fill="none"/><path d="M1 21h12v2H1v-2zM5.24 8.07l2.83-2.83 14.14 14.14-2.83 2.83L5.24 8.07zM12.32 1l5.66 5.66-2.83 2.83-5.66-5.66L12.32 1zM3.83 9.48l5.66 5.66-2.83 2.83L1 12.31l2.83-2.83z"/></svg> -->
<svg xmlns="http://www.w3.org/2000/svg" width="19" height="19" viewBox="0 0 19 19" fill="none">
<path d="M10.8211 17.2171V19H0V17.2171H10.8211ZM11.3495 0L18.3634 6.93356L17.0883 8.19583L16.1324 7.88027L13.8988 10.0857L19 15.1285L17.7249 16.389L12.6246 11.3462L10.4568 13.4892L10.712 14.4983L9.43598 15.7587L2.42212 8.82519L3.6981 7.5647L4.71709 7.81608L10.3927 2.2063L10.0744 1.26138L11.3495 0ZM11.987 3.15211L5.61073 9.45454L8.79843 12.6066L15.1748 6.30421L11.987 3.15211Z" fill=""/>
</svg>