<svg xmlns="http://www.w3.org/2000/svg" width="23" height="23" viewBox="0 0 23 23" fill="none">
<g clip-path="url(#clip0_114_11203)">
<path d="M20.729 5.81708C20.6712 5.73593 20.6401 5.63879 20.6401 5.53917C20.6401 5.43954 20.6712 5.3424 20.729 5.26125C20.9353 4.93606 21.0503 4.56135 21.062 4.17641C21.0737 3.79147 20.9816 3.41048 20.7954 3.07336C20.6092 2.73625 20.3358 2.45543 20.0037 2.26035C19.6717 2.06527 19.2932 1.96311 18.9081 1.96458C18.4996 1.96679 18.1004 2.08656 17.7581 2.30958C17.677 2.36736 17.5798 2.39841 17.4802 2.39841C17.3806 2.39841 17.2834 2.36736 17.2023 2.30958C16.3417 1.58154 15.3917 0.96642 14.3752 0.479165C13.0527 -0.115001 12.0177 -0.153335 11.4427 0.364165L8.71146 3.105C7.75312 4.06333 8.43354 6.93833 12.286 10.7717C15.1035 13.5892 17.3652 14.7008 18.7548 14.7008C18.96 14.714 19.1657 14.686 19.3599 14.6185C19.5541 14.551 19.7328 14.4454 19.8856 14.3079L22.5977 11.5958C23.4027 10.7237 23.0481 8.625 20.729 5.81708Z" fill="#272E43"/>
<path d="M11.2702 11.7683C10.9731 11.4712 10.6952 11.1837 10.4365 10.8962C10.3931 10.8477 10.3399 10.809 10.2804 10.7826C10.2209 10.7561 10.1565 10.7426 10.0915 10.7429C10.0263 10.74 9.96131 10.7504 9.90034 10.7734C9.83937 10.7965 9.78375 10.8318 9.73688 10.8771L0.498545 20.125C0.182109 20.4402 0.00383171 20.8681 0.0029331 21.3147C0.0020345 21.7613 0.178588 22.19 0.493753 22.5065C0.808919 22.8229 1.23688 23.0012 1.68349 23.0021C2.1301 23.003 2.55878 22.8264 2.87521 22.5113L12.1231 13.2537C12.1673 13.208 12.2018 13.154 12.2249 13.0947C12.2479 13.0355 12.2589 12.9723 12.2573 12.9088C12.2576 12.8437 12.2441 12.7793 12.2177 12.7198C12.1912 12.6603 12.1525 12.6071 12.104 12.5637C11.826 12.3146 11.5481 12.0462 11.2702 11.7683Z" fill="#272E43"/>
</g>
<defs>
<clipPath id="clip0_114_11203">
<rect width="23" height="23" fill="white"/>
</clipPath>
</defs>
</svg>