<svg width="36" height="36" viewBox="0 0 36 36" fill="none" xmlns="http://www.w3.org/2000/svg">
<path d="M9.98978 7.38218C9.63711 7.7349 9.36698 8.16142 9.19883 8.63104C9.03069 9.10066 8.9687 9.60172 9.01732 10.0982C9.06595 10.5946 9.22398 11.0741 9.48006 11.5022C9.73613 11.9302 10.0839 12.2962 10.4983 12.5738L14.4718 15.2359L1.30245 28.4073C0.468506 29.2414 0 30.3726 0 31.5522C0 32.7317 0.468506 33.863 1.30245 34.697C2.1364 35.5311 3.26748 35.9997 4.44686 35.9997C5.62624 35.9997 6.75731 35.5311 7.59126 34.697L20.7606 21.5279L23.4224 25.5021C23.6999 25.9165 24.0658 26.2643 24.4938 26.5205C24.9218 26.7766 25.4012 26.9346 25.8976 26.9833C26.394 27.0319 26.895 26.9699 27.3645 26.8017C27.8341 26.6335 28.2605 26.3634 28.6132 26.0107L35.0032 19.6174C35.3491 19.2715 35.6157 18.8546 35.7845 18.3955C35.9534 17.9364 36.0204 17.4461 35.981 16.9585C35.9417 16.4709 35.7968 15.9977 35.5565 15.5717C35.3162 15.1456 34.9861 14.7769 34.5892 14.4911L27.1349 9.11721C27.0371 9.04663 26.9512 8.96077 26.8807 8.86292L21.5099 1.40298C21.2241 1.00602 20.8554 0.675941 20.4294 0.435584C20.0034 0.195228 19.5303 0.0503415 19.0428 0.0109582C18.5553 -0.0284251 18.0651 0.0386352 17.606 0.207496C17.147 0.376357 16.7301 0.642984 16.3843 0.988914L9.99428 7.38218H9.98978ZM19.4849 19.6219L6.00049 33.106C5.58325 33.4904 5.03361 33.6985 4.46648 33.687C3.89935 33.6754 3.35864 33.4451 2.95739 33.0441C2.55614 32.643 2.32542 32.1024 2.31346 31.5352C2.3015 30.968 2.50923 30.4181 2.89322 30.0005L16.3776 16.5119L18.0516 17.6348C18.1735 17.7165 18.2782 17.8212 18.3598 17.9431L19.4849 19.6196V19.6219ZM11.7493 10.7037C11.6111 10.6113 11.495 10.4894 11.4095 10.3468C11.324 10.2042 11.2712 10.0444 11.2548 9.87888C11.2385 9.71339 11.259 9.54633 11.3149 9.38973C11.3709 9.23312 11.4608 9.09086 11.5783 8.97319L17.9728 2.58217C18.0881 2.46655 18.2271 2.3774 18.3802 2.3209C18.5333 2.26439 18.6969 2.24189 18.8596 2.25495C19.0223 2.26801 19.1802 2.31632 19.3224 2.39653C19.4645 2.47674 19.5875 2.58692 19.6829 2.71944L20.9586 4.49722L13.5448 11.9054L11.7515 10.7015L11.7493 10.7037ZM15.4483 13.1836L22.2884 6.34252L25.0492 10.1771C25.2614 10.4717 25.5197 10.73 25.8142 10.9423L29.6527 13.7079L22.8104 20.549L20.2274 16.6919C19.9821 16.3271 19.668 16.0137 19.3026 15.7693L15.4506 13.1814L15.4483 13.1836ZM31.5 15.0402L33.273 16.3161C33.4055 16.4114 33.5156 16.5345 33.5958 16.6766C33.676 16.8188 33.7243 16.9768 33.7374 17.1395C33.7505 17.3022 33.728 17.4658 33.6715 17.619C33.615 17.7721 33.5258 17.9111 33.4102 18.0264L27.0202 24.4174C26.9027 24.5354 26.7604 24.6259 26.6037 24.6822C26.447 24.7386 26.2797 24.7595 26.114 24.7433C25.9482 24.7272 25.7881 24.6744 25.6452 24.5889C25.5023 24.5033 25.3802 24.3871 25.2877 24.2486L24.0861 22.4551L31.5022 15.0402H31.5ZM22.4999 32.6245C22.4999 32.326 22.6184 32.0399 22.8294 31.8288C23.0404 31.6178 23.3265 31.4993 23.6249 31.4993H30.375C30.6733 31.4993 30.9595 31.6178 31.1705 31.8288C31.3814 32.0399 31.5 32.326 31.5 32.6245C31.5 32.9229 31.3814 33.2091 31.1705 33.4201C30.9595 33.6311 30.6733 33.7496 30.375 33.7496H34.875C35.1734 33.7496 35.4595 33.8682 35.6705 34.0792C35.8815 34.2902 36 34.5764 36 34.8748C36 35.1732 35.8815 35.4594 35.6705 35.6704C35.4595 35.8815 35.1734 36 34.875 36H19.1249C18.8265 36 18.5403 35.8815 18.3294 35.6704C18.1184 35.4594 17.9998 35.1732 17.9998 34.8748C17.9998 34.5764 18.1184 34.2902 18.3294 34.0792C18.5403 33.8682 18.8265 33.7496 19.1249 33.7496H23.6249C23.3265 33.7496 23.0404 33.6311 22.8294 33.4201C22.6184 33.2091 22.4999 32.9229 22.4999 32.6245Z" fill="#7AB645"/>
</svg>
