<svg
      xmlns="http://www.w3.org/2000/svg"
      width="36"
      height="35"
      fill="none"
      viewBox="0 0 36 35"
    >
      <path
        stroke="#7AB645"
        strokeLinecap="round"
        strokeLinejoin="round"
        strokeWidth="2.5"
        d="M30.734 15.056a12.954 12.954 0 00-25.908 0"
      ></path>
      <path
        stroke="#7AB645"
        strokeWidth="2.5"
        d="M30.733 26.39v.81a3.238 3.238 0 01-3.238 3.239h-5.667m-20.24-8.197v-3.037a3.239 3.239 0 012.453-3.142l2.817-.706a.972.972 0 011.206.943v8.846a.971.971 0 01-1.208.944l-2.817-.705a3.238 3.238 0 01-2.452-3.141v-.002zm32.384 0v-3.037a3.238 3.238 0 00-2.453-3.142l-2.818-.706a.972.972 0 00-1.206.943v8.846a.971.971 0 001.206.944l2.818-.705a3.239 3.239 0 002.453-3.141v-.002z"
      ></path>
      <path
        stroke="#7AB645"
        strokeWidth="2.5"
        d="M20.209 32.868H15.35a2.429 2.429 0 010-4.858h4.857a2.429 2.429 0 110 4.858z"
      ></path>
    </svg>