 <svg viewBox="0 0 40 33" version="1.1" xmlns="http://www.w3.org/2000/svg" width="32" height="32">
                                <path d="M33.8333333,19.3333333 L27.2916667,11.8333333 C26.4583333,10.875 24.9583333,10.875 24.125,11.8333333 L17.1666667,19.7916667 L14,16.3333333 C13.25,15.5 11.9166667,15.5 11.1666667,16.3333333 L6.16666667,21.8333333 L6.16666667,26.25 L33.7916667,26.25 L33.7916667,19.3333333 L33.8333333,19.3333333 Z"></path>
                                <circle cx="9.70833333" cy="9.83333333" r="2.875"></circle>
                                <path d="M38,0.25 L2,0.25 C1,0.25 0.208333333,1.04166667 0.208333333,2.04166667 L0.208333333,30.4583333 C0.208333333,31.4583333 1,32.25 2,32.25 L38,32.25 C39,32.25 39.7916667,31.4583333 39.7916667,30.4583333 L39.7916667,2.04166667 C39.7916667,1.04166667 39,0.25 38,0.25 Z M36.2083333,28.6666667 L3.79166667,28.6666667 L3.79166667,3.83333333 L36.2083333,3.83333333 L36.2083333,28.6666667 L36.2083333,28.6666667 Z"></path>
                            <title>image</title> 
                            </svg>