<!-- <svg xmlns="http://www.w3.org/2000/svg" height="24px" viewBox="0 0 24 24" width="24px" fill="#000000"><path d="M0 0h24v24H0V0z" fill="none"/><path d="M17 7h-4v2h4c1.65 0 3 1.35 3 3s-1.35 3-3 3h-4v2h4c2.76 0 5-2.24 5-5s-2.24-5-5-5zm-6 8H7c-1.65 0-3-1.35-3-3s1.35-3 3-3h4V7H7c-2.76 0-5 2.24-5 5s2.24 5 5 5h4v-2zm-3-4h8v2H8z"/></svg> -->
<svg xmlns="http://www.w3.org/2000/svg" width="30" height="30" viewBox="0 0 30 30" fill="none">
<circle cx="15" cy="15" r="15" fill="#272E43"/>
<path d="M15.8244 16.8037C15.6305 16.8828 15.4758 17.0355 15.3941 17.2284C15.3125 17.4213 15.3107 17.6386 15.389 17.8329C15.4496 17.9771 15.4662 18.136 15.4366 18.2895C15.407 18.4431 15.3326 18.5845 15.2228 18.6958L12.9824 20.9362C12.8353 21.0834 12.6607 21.2002 12.4685 21.2799C12.2763 21.3596 12.0702 21.4006 11.8621 21.4006C11.6541 21.4006 11.448 21.3596 11.2558 21.2799C11.0636 21.2002 10.889 21.0834 10.7419 20.9362L9.0636 19.25C8.91639 19.1029 8.7996 18.9283 8.71992 18.7361C8.64024 18.5439 8.59923 18.3378 8.59923 18.1298C8.59923 17.9217 8.64024 17.7157 8.71992 17.5234C8.7996 17.3312 8.91639 17.1566 9.0636 17.0096L11.304 14.7771C11.4153 14.6672 11.5567 14.5928 11.7103 14.5632C11.8639 14.5336 12.0228 14.5502 12.1669 14.6108C12.3611 14.6906 12.5791 14.69 12.7729 14.609C12.9666 14.5281 13.1203 14.3736 13.2001 14.1793C13.2798 13.9851 13.2792 13.7672 13.1983 13.5734C13.1174 13.3797 12.9628 13.226 12.7686 13.1462C12.3346 12.9663 11.857 12.9192 11.3962 13.0108C10.9354 13.1024 10.5121 13.3286 10.1799 13.6608L7.93943 15.9012C7.34723 16.4949 7.01465 17.2992 7.01465 18.1377C7.01465 18.9762 7.34723 19.7805 7.93943 20.3741L9.62568 22.0604C10.2193 22.6526 11.0236 22.9852 11.8621 22.9852C12.7007 22.9852 13.505 22.6526 14.0986 22.0604L16.339 19.82C16.6712 19.4877 16.8974 19.0645 16.989 18.6037C17.0806 18.1429 17.0335 17.6652 16.8536 17.2312C16.773 17.0387 16.6197 16.8858 16.427 16.8057C16.2342 16.7256 16.0177 16.7249 15.8244 16.8037Z" fill="white"/>
<path d="M12.1433 17.8566C12.2916 18.0041 12.4923 18.0869 12.7014 18.0869C12.9106 18.0869 13.1112 18.0041 13.2595 17.8566L19.4583 11.6975C19.588 11.546 19.6558 11.3512 19.6481 11.152C19.6404 10.9527 19.5578 10.7637 19.4168 10.6227C19.2758 10.4818 19.0868 10.3992 18.8875 10.3915C18.6883 10.3838 18.4935 10.4515 18.342 10.5812L12.1433 16.7404C11.9958 16.8887 11.9131 17.0894 11.9131 17.2985C11.9131 17.5077 11.9958 17.7083 12.1433 17.8566Z" fill="white"/>
<path d="M23.0601 8.61789L21.3739 6.93956C20.7802 6.34735 19.9759 6.01477 19.1374 6.01477C18.2989 6.01477 17.4946 6.34735 16.901 6.93956L14.6605 9.17997C14.215 9.62494 13.9644 10.2286 13.9639 10.8583C13.9641 11.1708 14.026 11.4802 14.146 11.7687C14.2257 11.9629 14.3794 12.1175 14.5732 12.1984C14.7669 12.2793 14.9849 12.28 15.1791 12.2002C15.3733 12.1204 15.5279 11.9667 15.6088 11.773C15.6897 11.5792 15.6903 11.3613 15.6105 11.1671C15.5689 11.0694 15.5474 10.9644 15.5472 10.8583C15.5481 10.6506 15.6305 10.4516 15.7768 10.3041L18.0172 8.06372C18.1642 7.91651 18.3389 7.79972 18.5311 7.72004C18.7233 7.64036 18.9293 7.59935 19.1374 7.59935C19.3455 7.59935 19.5515 7.64036 19.7437 7.72004C19.9359 7.79972 20.1106 7.91651 20.2576 8.06372L21.9359 9.74997C22.0832 9.89702 22.1999 10.0716 22.2796 10.2639C22.3593 10.4561 22.4003 10.6621 22.4003 10.8702C22.4003 11.0783 22.3593 11.2843 22.2796 11.4765C22.1999 11.6687 22.0832 11.8433 21.9359 11.9904L19.6955 14.215C19.5851 14.3262 19.4441 14.4021 19.2905 14.4331C19.1369 14.4641 18.9775 14.4488 18.8326 14.3891C18.6394 14.3104 18.4228 14.3111 18.2301 14.3911C18.0373 14.4712 17.884 14.6241 17.8034 14.8166C17.7632 14.9128 17.7424 15.0159 17.7421 15.1201C17.7418 15.2244 17.7621 15.3276 17.8018 15.424C17.8415 15.5203 17.8999 15.6079 17.9735 15.6816C18.0472 15.7554 18.1347 15.8139 18.2309 15.8537C18.665 16.0336 19.1426 16.0808 19.6034 15.9892C20.0642 15.8976 20.4875 15.6713 20.8197 15.3391L23.0601 13.0987C23.3545 12.8046 23.5881 12.4554 23.7475 12.071C23.9068 11.6865 23.9889 11.2745 23.9889 10.8583C23.9889 10.4422 23.9068 10.0301 23.7475 9.64566C23.5881 9.26123 23.3545 8.91199 23.0601 8.61789Z" fill="white"/>
</svg>