<!-- <svg xmlns="http://www.w3.org/2000/svg" fill="#000000" viewBox="0 0 24 24" width="24px" height="24px"><path d="M 21.800781 0 L 2.199219 0 C 1 0 0 1 0 2.199219 L 0 21.800781 C 0 23 1 24 2.199219 24 L 21.800781 24 C 23 24 24 23 24 21.800781 L 24 2.199219 C 24 1 23 0 21.800781 0 Z M 7 20 L 3 20 L 3 9 L 7 9 Z M 5 7.699219 C 3.800781 7.699219 3 6.898438 3 5.898438 C 3 4.800781 3.800781 4 5 4 C 6.199219 4 7 4.800781 7 5.800781 C 7 6.898438 6.199219 7.699219 5 7.699219 Z M 21 20 L 17 20 L 17 14 C 17 12.398438 15.898438 12 15.601563 12 C 15.300781 12 14 12.199219 14 14 C 14 14.199219 14 20 14 20 L 10 20 L 10 9 L 14 9 L 14 10.601563 C 14.601563 9.699219 15.601563 9 17.5 9 C 19.398438 9 21 10.5 21 14 Z"/></svg>
 -->

 <svg xmlns="http://www.w3.org/2000/svg" width="31" height="31" viewBox="0 0 31 31" fill="none">
<path fill-rule="evenodd" clip-rule="evenodd" d="M15.1927 0C6.80199 0 0 6.80199 0 15.1927C0 23.5833 6.80199 30.3853 15.1927 30.3853C23.5833 30.3853 30.3853 23.5833 30.3853 15.1927C30.3853 6.80199 23.5833 0 15.1927 0ZM7.29342 12.5832H10.7364V22.928H7.29342V12.5832ZM10.9634 9.38317C10.941 8.36888 10.2157 7.59633 9.03788 7.59633C7.86005 7.59633 7.09003 8.36888 7.09003 9.38317C7.09003 10.3765 7.83729 11.1713 8.99319 11.1713H9.01519C10.2157 11.1713 10.9634 10.3765 10.9634 9.38317ZM19.1888 12.3403C21.4544 12.3403 23.153 13.8192 23.153 16.9966L23.1528 22.928H19.71V17.3935C19.71 16.0034 19.2118 15.0548 17.9654 15.0548C17.0142 15.0548 16.4476 15.6943 16.1988 16.312C16.1078 16.5333 16.0854 16.8417 16.0854 17.1509V22.9283H12.642C12.642 22.9283 12.6874 13.5542 12.642 12.5835H16.0854V14.0488C16.5424 13.3444 17.3608 12.3403 19.1888 12.3403Z" fill="#272E43"/>
</svg>