    <svg
      xmlns="http://www.w3.org/2000/svg"
      width="33"
      height="33"
      fill="none"
      viewBox="0 0 33 33"
    >
      <path
        stroke="#000"
        strokeLinecap="round"
        strokeLinejoin="round"
        strokeWidth="1.5"
        d="M3.094 5.394v10.47a16.372 16.372 0 0010.494 15.28l1.431.55a4.125 4.125 0 002.962 0l1.431-.55a16.373 16.373 0 0010.494-15.28V5.393a2.046 2.046 0 00-1.193-1.873A29.837 29.837 0 0016.5 1.031c-4.2-.039-8.362.81-12.213 2.49a2.045 2.045 0 00-1.193 1.873z"
      ></path>
      <path
        stroke="#000"
        strokeLinecap="round"
        strokeLinejoin="round"
        strokeWidth="1.5"
        d="M20.625 13.406h-8.25c-1.14 0-2.063.924-2.063 2.063v6.187c0 1.14.924 2.063 2.063 2.063h8.25c1.14 0 2.063-.924 2.063-2.063V15.47a2.063 2.063 0 00-2.063-2.063zM16.5 7.219a4.125 4.125 0 00-4.125 4.125v2.062h8.25v-2.062A4.125 4.125 0 0016.5 7.219z"
      ></path>
      <path
        stroke="#000"
        strokeWidth="1.5"
        d="M16.5 19.118a.516.516 0 110-1.031M16.5 19.118a.516.516 0 100-1.031"
      ></path>
    </svg>