<!-- Generated by IcoMoon.io -->
<svg version="1.1" xmlns="http://www.w3.org/2000/svg" fill="#a3cf27" width="32" height="32" viewBox="0 0 32 32">
<title>machinery</title>
<path d="M19.189 23.664h7.441c0.28 0.336 0.671 0.559 1.119 0.559 0.783 0 1.399-0.615 1.399-1.399s-0.615-1.399-1.399-1.399c-0.448 0-0.839 0.224-1.119 0.559h-6.713l-1.063-0.727-12.084 0.28v-3.916h-2.517l-0.727 6.042-3.524 2.462h6.042l0.336-1.79 11.748-1.399 1.063 0.727z"></path>
<path d="M21.483 16.559h5.203v-7.832h-3.692z"></path>
<path d="M29.538 19.077v-13.203c-3.189 0-6.378 0-9.622 0-0.336 0-0.727 0.392-0.727 0.727v0c0 0.392 0.392 0.671 0.727 0.671h0.503l-0.839 4.979h-1.79c0-0.392-0.336-0.727-0.727-0.727-0.28 0-0.503 0-0.783 0-0.336 0-0.671 0.336-0.671 0.727h-1.734v-3.245c0-0.28-0.224-0.615-0.504-0.671-0.392-0.112-0.895-0.28-1.287-0.392-0.336 0-0.671 0.28-0.727 0.615s0.168 0.727 0.504 0.783l0.559 0.168v2.685h-2.126v6.825c-0.951 0.168-1.678 0.727-2.126 1.678 3.58-0.112 7.049-0.224 10.629-0.336 0.168 0 0.28 0.056 0.448 0.112l0.895 0.615c2.070 0 4.364 0 6.154 0 0.392-0.336 0.895-0.559 1.399-0.559 1.175 0 2.126 0.951 2.126 2.126s-0.895 2.238-2.070 2.238c-0.727 0-1.063-0.168-1.399-0.559h-7.161c-0.168 0-0.28-0.056-0.392-0.112l-0.839-0.559-4.308 0.503c-0.392 0.448-0.951 0.727-1.566 0.727-0.448 0-0.839-0.112-1.175-0.392l-2.517 0.336c0.559 0.895 1.511 1.287 2.573 1.287h17.902c1.734 0 3.133-1.175 3.133-3.58 0-2.014-1.063-3.189-2.462-3.469zM16.559 13.706v0c0.503 0 1.063 0 1.566 0 0.392 0 0.727 0.336 0.727 0.727s-0.336 0.727-0.727 0.727h-1.399c-0.392 0.056-0.727-0.28-0.783-0.615s0.224-0.783 0.615-0.839zM18.126 16.895h-1.399c-0.392 0.056-0.727-0.28-0.783-0.615-0.056-0.392 0.28-0.727 0.615-0.783v0c0.503 0 1.063 0 1.566 0 0.392 0 0.727 0.336 0.727 0.727s-0.336 0.671-0.727 0.671zM28.084 17.231c0 0.392-0.336 0.727-0.727 0.727h-6.713c-0.392 0-0.783-0.448-0.727-0.839l1.79-9.231c0.056-0.28 0.336-0.559 0.615-0.559 1.678 0 3.357 0 5.035 0 0.392 0 0.727 0.336 0.727 0.727v9.175z"></path>
</svg>
