<svg width="34" height="29" viewBox="0 0 34 29" fill="none" xmlns="http://www.w3.org/2000/svg">
<path d="M34 0L32.4457 0.479349L4.62886 9.38758H0V19.6137H4.63007L7.01979 20.373L6.98336 20.4919V20.5328C6.20379 23.2325 7.64757 26.2338 10.3226 27.0826C10.3348 27.0864 10.3494 27.0788 10.3591 27.0826C12.937 27.9071 15.7906 26.4051 16.5835 23.5674L16.6199 23.4472L32.4457 28.5219L34 29V0ZM31.5714 3.43598V25.5653L5.19714 17.0955L5.04779 17.0572H2.42857V11.9441H5.04657L5.19836 11.9058L31.5714 3.4347V3.43598ZM9.33422 21.131L14.3055 22.6905L14.2691 22.8094V22.8477C13.8514 24.3433 12.3432 25.0744 11.0439 24.6462C9.62321 24.2078 8.89221 22.6598 9.29779 21.2908V21.2524L9.33422 21.131Z" fill="#7AB645"/>
</svg>
