<svg width="24" height="24" viewBox="0 0 31 30" fill="none" xmlns="http://www.w3.org/2000/svg">
<path d="M30.085 14.9669H27.9896C27.825 14.9669 27.6903 15.1016 27.6903 15.2663V27.2398H3.14449V2.69405H15.118C15.2827 2.69405 15.4174 2.55934 15.4174 2.39471V0.299339C15.4174 0.134702 15.2827 0 15.118 0H1.64779C0.985507 0 0.450439 0.535068 0.450439 1.19735V28.7365C0.450439 29.3988 0.985507 29.9339 1.64779 29.9339H29.1869C29.8492 29.9339 30.3843 29.3988 30.3843 28.7365V15.2663C30.3843 15.1016 30.2496 14.9669 30.085 14.9669Z" />
<path d="M9.68465 15.7416L9.61393 20.1674C9.61021 20.4987 9.8782 20.7704 10.2095 20.7704H10.2244L14.6165 20.6625C14.6909 20.6588 14.7654 20.629 14.8175 20.5769L30.2978 5.12933C30.4132 5.01394 30.4132 4.8241 30.2978 4.70871L25.6712 0.085613C25.6116 0.0260562 25.5372 0 25.459 0C25.3809 0 25.3064 0.0297785 25.2469 0.085613L9.77026 15.5332C9.7165 15.5894 9.68593 15.6638 9.68465 15.7416ZM12.0482 16.6201L25.459 3.2384L27.1414 4.91716L13.7232 18.3063L12.0221 18.3472L12.0482 16.6201Z" />
</svg>
