<!-- <svg xmlns="http://www.w3.org/2000/svg" height="24px" viewBox="0 0 24 24" width="24px" fill="#FFFFFF"><path d="M0 0h24v24H0V0z" fill="none"/><path d="M12 22c1.1 0 2-.9 2-2h-4c0 1.1.9 2 2 2zm6-6v-5c0-3.07-1.63-5.64-4.5-6.32V4c0-.83-.67-1.5-1.5-1.5s-1.5.67-1.5 1.5v.68C7.64 5.36 6 7.92 6 11v5l-2 2v1h16v-1l-2-2zm-2 1H8v-6c0-2.48 1.51-4.5 4-4.5s4 2.02 4 4.5v6z"/></svg> -->


<svg xmlns="http://www.w3.org/2000/svg" width="22" height="24" viewBox="0 0 22 24" fill="none">
<path d="M10.8 0.657104C8.45653 0.657104 6.20904 1.55113 4.55196 3.14251C2.89487 4.73389 1.96393 6.89227 1.96393 9.14282V13.6714L0.0700676 18.2216C0.0105449 18.3647 -0.0115585 18.5196 0.00569154 18.6728C0.0229416 18.8259 0.0790192 18.9727 0.169018 19.1003C0.259017 19.2278 0.380194 19.3323 0.521947 19.4044C0.663699 19.4766 0.821708 19.5143 0.982146 19.5142H6.87286C6.87286 21.6046 8.62338 23.2857 10.8 23.2857C12.9766 23.2857 14.7271 21.6046 14.7271 19.5142H20.6179C20.7783 19.5143 20.9363 19.4766 21.0781 19.4044C21.2198 19.3323 21.341 19.2278 21.431 19.1003C21.521 18.9727 21.5771 18.8259 21.5943 18.6728C21.6116 18.5196 21.5895 18.3647 21.5299 18.2216L19.6361 13.6714V9.14282C19.6361 6.89227 18.7051 4.73389 17.048 3.14251C15.391 1.55113 13.1435 0.657104 10.8 0.657104ZM12.7636 19.5142C12.7636 20.5627 11.8917 21.4 10.8 21.4C9.70825 21.4 8.83643 20.5627 8.83643 19.5142H12.7636ZM3.9275 9.14282C3.9275 7.39239 4.65157 5.71365 5.94041 4.47591C7.22925 3.23817 8.9773 2.54282 10.8 2.54282C12.6227 2.54282 14.3707 3.23817 15.6596 4.47591C16.9484 5.71365 17.6725 7.39239 17.6725 9.14282V13.8524C17.6724 13.9722 17.696 14.0909 17.7422 14.2022L19.1678 17.6285H2.43224L3.8578 14.2022C3.90384 14.0912 3.92749 13.9728 3.9275 13.8533V9.14282Z" fill="#111111"/>
</svg>
