<!-- <svg aria-hidden="true" focusable="false" data-prefix="fas" data-icon="wifi" class="svg-inline--fa fa-wifi fa-w-20" role="img" xmlns="http://www.w3.org/2000/svg" viewBox="0 0 640 512"><path fill="currentColor" d="M634.91 154.88C457.74-8.99 182.19-8.93 5.09 154.88c-6.66 6.16-6.79 16.59-.35 22.98l34.24 33.97c6.14 6.1 16.02 6.23 22.4.38 145.92-133.68 371.3-133.71 517.25 0 6.38 5.85 16.26 5.71 22.4-.38l34.24-33.97c6.43-6.39 6.3-16.82-.36-22.98zM320 352c-35.35 0-64 28.65-64 64s28.65 64 64 64 64-28.65 64-64-28.65-64-64-64zm202.67-83.59c-115.26-101.93-290.21-101.82-405.34 0-6.9 6.1-7.12 16.69-.57 23.15l34.44 33.99c6 5.92 15.66 6.32 22.05.8 83.95-72.57 209.74-72.41 293.49 0 6.39 5.52 16.05 5.13 22.05-.8l34.44-33.99c6.56-6.46 6.33-17.06-.56-23.15z"></path></svg> -->

<svg xmlns="http://www.w3.org/2000/svg" width="31" height="29" viewBox="0 0 31 29" fill="none">
<path d="M4.56921 11.64C4.40957 11.7985 4.28287 11.987 4.19641 12.1946C4.10994 12.4023 4.06543 12.625 4.06543 12.85C4.06543 13.0749 4.10994 13.2976 4.19641 13.5053C4.28287 13.713 4.40957 13.9015 4.56921 14.06C4.72674 14.2213 4.91494 14.3495 5.12274 14.437C5.33054 14.5245 5.55374 14.5696 5.77921 14.5696C6.00469 14.5696 6.22789 14.5245 6.43568 14.437C6.64348 14.3495 6.83168 14.2213 6.98921 14.06C9.24939 11.808 12.3099 10.5436 15.5005 10.5436C18.691 10.5436 21.7515 11.808 24.0117 14.06C24.1714 14.22 24.361 14.347 24.5698 14.4337C24.7787 14.5203 25.0025 14.5649 25.2286 14.5649C25.4547 14.5649 25.6785 14.5203 25.8873 14.4337C26.0961 14.347 26.2858 14.22 26.4455 14.06C26.758 13.7347 26.9326 13.3011 26.9326 12.85C26.9326 12.3989 26.758 11.9652 26.4455 11.64C23.5427 8.74234 19.6088 7.1149 15.5073 7.1149C11.4059 7.1149 7.47196 8.74234 4.56921 11.64Z" fill="black"/>
<path d="M30.3228 6.37378C26.3908 2.44422 21.0593 0.236816 15.5003 0.236816C9.94134 0.236816 4.60985 2.44422 0.677821 6.37378C0.355085 6.69834 0.174499 7.13781 0.175788 7.59551C0.177077 8.05322 0.360137 8.49167 0.684696 8.8144C1.00925 9.13714 1.44873 9.31772 1.90643 9.31643C2.36414 9.31515 2.80258 9.13209 3.12532 8.80753C6.4166 5.54291 10.8646 3.71109 15.5003 3.71109C20.1361 3.71109 24.584 5.54291 27.8753 8.80753C28.2036 9.09934 28.6311 9.25441 29.0701 9.2409C29.5091 9.22738 29.9263 9.04631 30.236 8.73485C30.5457 8.4234 30.7244 8.0052 30.7354 7.56611C30.7465 7.12703 30.589 6.70039 30.2953 6.37378H30.3228Z" fill="black"/>
<path d="M18.7732 14.5C17.0045 13.8854 15.0988 13.78 13.2731 14.1957C11.4474 14.6114 9.77521 15.5315 8.44694 16.8512C8.13027 17.1771 7.95312 17.6137 7.95312 18.0681C7.95312 18.5225 8.13027 18.9591 8.44694 19.285C8.60709 19.4465 8.79773 19.5747 9.0078 19.662C9.21787 19.7494 9.44319 19.7941 9.67069 19.7937C9.89633 19.7954 10.12 19.7512 10.328 19.6637C10.536 19.5763 10.724 19.4474 10.8807 19.285C12.067 18.1089 13.6589 17.432 15.329 17.3937C16.9991 17.3553 18.6204 17.9583 19.8594 19.0787C20.0445 19.2901 20.27 19.4623 20.5227 19.5851C20.7754 19.7079 21.0501 19.7788 21.3307 19.7937C21.6702 19.7906 22.0012 19.6877 22.2828 19.498C22.5643 19.3083 22.7839 19.04 22.9142 18.7266C23.0446 18.4131 23.08 18.0683 23.016 17.7349C22.9521 17.4014 22.7916 17.0942 22.5544 16.8512C21.4895 15.7898 20.1962 14.9856 18.7732 14.5Z" fill="black"/>
<path d="M15.5 28.7588C17.3985 28.7588 18.9375 27.2197 18.9375 25.3213C18.9375 23.4228 17.3985 21.8838 15.5 21.8838C13.6015 21.8838 12.0625 23.4228 12.0625 25.3213C12.0625 27.2197 13.6015 28.7588 15.5 28.7588Z" fill="black"/>
</svg>