<svg viewBox="0 0 28 36" version="1.1" xmlns="http://www.w3.org/2000/svg" width="32" height="32" >
<path d="M0,0 L0,35.7 L27.2,35.7 L27.2,8.2875 L19.55,8.2875 C19.1979331,8.2874648 18.9125352,8.00206695 18.9125,7.65 L18.9125,0 L0,0 Z M20.1875,0.6109375 L20.1875,7.0125 L26.6023437,7.0125 L20.1875,0.6109375 Z M4.25,12.325 L8.925,12.325 L8.925,16.575 L4.25,16.575 L4.25,12.325 Z M12.325,12.325 L22.95,12.325 L22.95,16.575 L12.325,16.575 L12.325,12.325 Z M4.25,19.55 L8.925,19.55 L8.925,23.8 L4.25,23.8 L4.25,19.55 Z M12.325,19.55 L22.95,19.55 L22.95,23.8 L12.325,23.8 L12.325,19.55 Z M4.25,26.775 L8.925,26.775 L8.925,31.025 L4.25,31.025 L4.25,26.775 Z M12.325,26.775 L22.95,26.775 L22.95,31.025 L12.325,31.025 L12.325,26.775 Z"></path>
<title>page</title>                         
 </svg>