<svg viewBox="0 0 35 32" version="1.1" xmlns="http://www.w3.org/2000/svg"
                                 xmlns:xlink="http://www.w3.org/1999/xlink" width="32" height="32" >
                                <rect x="2.54596344e-13" y="17.3511111" width="3.64"
                                      height="12.7288889"></rect>
                                <path d="M30.66,23.2533333 L23.1,26.24 C23.1,26.24 23.03,26.24 23.03,26.24 L22.89,26.3111111 C22.89,26.3111111 22.82,26.3111111 22.82,26.3111111 C22.54,26.3822222 22.33,26.4533333 22.05,26.4533333 L12.95,26.4533333 C12.53,26.4533333 12.18,26.0977778 12.18,25.6711111 C12.18,25.2444444 12.53,24.8888889 12.95,24.8888889 L21.98,24.8888889 C22.12,24.8888889 22.26,24.8888889 22.4,24.8177778 L22.47,24.8177778 C22.89,24.6044444 23.17,24.1777778 23.17,23.68 C23.17,22.9688889 22.61,22.4 21.91,22.4 L16.94,22.4 C16.73,22.4 16.52,22.3288889 16.38,22.1155556 C14.91,20.5511111 12.88,19.6266667 10.71,19.6266667 L5.04,19.6266667 L5.04,27.6622222 L14.98,31.2888889 C16.94,32 19.11,31.8577778 21,30.9333333 L35,24.1066667 C33.88,22.9688889 32.2,22.6133333 30.66,23.2533333 Z"
                                ></path>
                                <path d="M21.84,15.7866667 C26.11,15.7866667 29.61,12.2311111 29.61,7.89333333 C29.61,3.55555556 26.11,2.57690166e-13 21.84,2.57690166e-13 C17.57,2.57690166e-13 14.07,3.55555556 14.07,7.89333333 C14.07,12.2311111 17.57,15.7866667 21.84,15.7866667 Z M21.84,8.67555556 C20.23,8.67555556 18.9,7.32444444 18.9,5.68888889 C18.9,4.33777778 19.81,3.12888889 21.07,2.84444444 L21.07,2.77333333 C21.07,2.34666667 21.42,1.99111111 21.84,1.99111111 C22.26,1.99111111 22.61,2.34666667 22.61,2.77333333 L22.61,2.84444444 C23.87,3.2 24.78,4.33777778 24.78,5.68888889 C24.78,6.11555556 24.43,6.47111111 24.01,6.47111111 C23.59,6.47111111 23.24,6.11555556 23.24,5.68888889 C23.24,4.90666667 22.61,4.26666667 21.84,4.26666667 L21.84,4.26666667 C21.07,4.26666667 20.44,4.90666667 20.44,5.68888889 C20.44,6.47111111 21.07,7.11111111 21.84,7.11111111 C23.45,7.11111111 24.78,8.46222222 24.78,10.0977778 C24.78,11.4488889 23.87,12.6577778 22.61,12.9422222 L22.61,13.0133333 C22.61,13.44 22.26,13.7955556 21.84,13.7955556 C21.42,13.7955556 21.07,13.44 21.07,13.0133333 L21.07,12.9422222 C19.81,12.5866667 18.9,11.4488889 18.9,10.0977778 C18.9,9.67111111 19.25,9.31555556 19.67,9.31555556 C20.09,9.31555556 20.44,9.67111111 20.44,10.0977778 C20.44,10.88 21.07,11.52 21.84,11.52 L21.84,11.52 C22.61,11.52 23.24,10.88 23.24,10.0977778 C23.24,9.31555556 22.61,8.67555556 21.84,8.67555556 Z"
                                ></path>
                                <title>paid</title
                            </svg>