<!-- <svg xmlns="http://www.w3.org/2000/svg" height="24px" viewBox="0 0 24 24" width="24px" fill="#000000"><path d="M0 0h24v24H0V0z" fill="none"/><path d="M19 8h-1V3H6v5H5c-1.66 0-3 1.34-3 3v6h4v4h12v-4h4v-6c0-1.66-1.34-3-3-3zM8 5h8v3H8V5zm8 12v2H8v-4h8v2zm2-2v-2H6v2H4v-4c0-.55.45-1 1-1h14c.55 0 1 .45 1 1v4h-2z"/><circle cx="18" cy="11.5" r="1"/></svg> -->
<svg xmlns="http://www.w3.org/2000/svg" width="30" height="30" viewBox="0 0 30 30" fill="none">
<circle cx="15" cy="15" r="15" fill="#272E43"/>
<g clip-path="url(#clip0_453_11292)">
<path d="M10.8337 11C11.0105 11 11.18 10.9298 11.3051 10.8047C11.4301 10.6797 11.5003 10.5101 11.5003 10.3333V8.33333H17.3937L18.8337 9.77333V10.3333C18.8337 10.5101 18.9039 10.6797 19.0289 10.8047C19.1539 10.9298 19.3235 11 19.5003 11C19.6771 11 19.8467 10.9298 19.9717 10.8047C20.0968 10.6797 20.167 10.5101 20.167 10.3333V9.5C20.1711 9.40782 20.1561 9.31578 20.1228 9.22971C20.0895 9.14364 20.0387 9.06542 19.9737 9L18.3337 7.39333C18.0848 7.14294 17.7467 7.00149 17.3937 7H11.5003C11.1467 7 10.8076 7.14048 10.5575 7.39052C10.3075 7.64057 10.167 7.97971 10.167 8.33333V10.3333C10.167 10.5101 10.2372 10.6797 10.3623 10.8047C10.4873 10.9298 10.6568 11 10.8337 11Z" fill="white"/>
<path d="M21.3333 11.6666H8.66667C8.22464 11.6666 7.80072 11.8422 7.48816 12.1548C7.17559 12.4673 7 12.8913 7 13.3333V16.3333C7 16.7753 7.17559 17.1992 7.48816 17.5118C7.80072 17.8244 8.22464 18 8.66667 18H10.3333V22.1666C10.3333 22.2761 10.3549 22.3844 10.3968 22.4855C10.4386 22.5866 10.5 22.6785 10.5774 22.7559C10.6548 22.8333 10.7467 22.8946 10.8478 22.9365C10.9489 22.9784 11.0572 23 11.1667 23H19.1667C19.2761 23 19.3845 22.9784 19.4856 22.9365C19.5867 22.8946 19.6785 22.8333 19.7559 22.7559C19.8333 22.6785 19.8947 22.5866 19.9366 22.4855C19.9784 22.3844 20 22.2761 20 22.1666V18H21.3333C21.5522 18 21.7689 17.9568 21.9711 17.8731C22.1733 17.7893 22.3571 17.6666 22.5118 17.5118C22.6666 17.357 22.7894 17.1733 22.8731 16.9711C22.9569 16.7689 23 16.5522 23 16.3333V13.3333C23 13.1144 22.9569 12.8977 22.8731 12.6955C22.7894 12.4933 22.6666 12.3095 22.5118 12.1548C22.3571 12 22.1733 11.8773 21.9711 11.7935C21.7689 11.7097 21.5522 11.6666 21.3333 11.6666ZM9.33333 14.6666C9.20148 14.6666 9.07259 14.6275 8.96295 14.5543C8.85332 14.481 8.76787 14.3769 8.71741 14.2551C8.66696 14.1333 8.65375 13.9992 8.67948 13.8699C8.7052 13.7406 8.76869 13.6218 8.86193 13.5286C8.95516 13.4353 9.07395 13.3718 9.20327 13.3461C9.33259 13.3204 9.46664 13.3336 9.58846 13.384C9.71027 13.4345 9.81439 13.5199 9.88765 13.6296C9.9609 13.7392 10 13.8681 10 14C10 14.1768 9.92976 14.3463 9.80474 14.4714C9.67971 14.5964 9.51014 14.6666 9.33333 14.6666ZM18.6667 21.3333C18.6667 21.4217 18.6315 21.5065 18.569 21.569C18.5065 21.6315 18.4217 21.6666 18.3333 21.6666H12C11.9116 21.6666 11.8268 21.6315 11.7643 21.569C11.7018 21.5065 11.6667 21.4217 11.6667 21.3333V15.3333C11.6667 15.2449 11.7018 15.1601 11.7643 15.0976C11.8268 15.0351 11.9116 15 12 15H18.3333C18.4217 15 18.5065 15.0351 18.569 15.0976C18.6315 15.1601 18.6667 15.2449 18.6667 15.3333V21.3333Z" fill="white"/>
<path d="M16.7935 17.5933C16.7694 17.5377 16.7307 17.4896 16.6813 17.4544C16.632 17.4191 16.574 17.398 16.5135 17.3933C16.4538 17.3865 16.3933 17.3966 16.3391 17.4226C16.2849 17.4485 16.239 17.4892 16.2068 17.54L15.1002 19.1866L14.0002 18.2866C13.9622 18.2563 13.9181 18.2346 13.8709 18.2231C13.8237 18.2115 13.7745 18.2105 13.7268 18.22C13.6777 18.2303 13.6314 18.2511 13.5911 18.281C13.5509 18.3109 13.5175 18.3492 13.4935 18.3933L12.4002 20.5133C12.3721 20.5632 12.3574 20.6194 12.3574 20.6766C12.3574 20.7339 12.3721 20.7901 12.4002 20.84C12.431 20.8883 12.4733 20.9281 12.5234 20.9561C12.5734 20.984 12.6296 20.9991 12.6868 21H17.6668C17.7219 21 17.7762 20.9867 17.8249 20.9612C17.8737 20.9356 17.9155 20.8986 17.9468 20.8533C17.9731 20.8053 17.9869 20.7514 17.9869 20.6966C17.9869 20.6419 17.9731 20.588 17.9468 20.54L16.7935 17.5933Z" fill="white"/>
</g>
<defs>
<clipPath id="clip0_453_11292">
<rect width="16" height="16" fill="white" transform="translate(7 7)"/>
</clipPath>
</defs>
</svg>