<svg xmlns="http://www.w3.org/2000/svg" viewBox="0 0 210.08 277.17">
<defs>
<style>.cls-1{fill:#baba2d}.cls-2{fill:#79b530}.cls-3{fill:#223c38}</style></defs>
<path class="cls-2" d="M198.57 63.92a2.21 2.21 0 0 0-.88-1.61L107.31.23a1.68 1.68 0 0 0-.88-.23 1.65 1.65 0 0 0-.88.23l-62 30.83 155 100.64zM9.11 212.38A2.14 2.14 0 0 0 10 214l90.39 61.39a1.77 1.77 0 0 0 .87.24 1.68 1.68 0 0 0 .89-.24l62-30.13L9.11 144.62z"/>
<path class="cls-3" d="M208.26 171.88L15.09 46.07V34.66L.13 42.6a.24.24 0 0 0-.13.23v61.59l193.17 125.81v11.38l15-7.78a.26.26 0 0 0 .13-.24v-61.72"/>
</g>
</g>
</svg>