<svg xmlns="http://www.w3.org/2000/svg" width="15" height="25" viewBox="0 0 15 25" fill="none">
<path d="M12.2065 10.019C12.04 10.1854 11.7796 10.2005 11.5961 10.0643L11.5435 10.019L7.5 5.97562L3.45646 10.019C3.29004 10.1854 3.02962 10.2005 2.84612 10.0643L2.79354 10.019C2.62713 9.85254 2.612 9.59212 2.74816 9.40862L2.79354 9.35604L7.16854 4.98104C7.33496 4.81463 7.59538 4.7995 7.77888 4.93566L7.83146 4.98104L12.2065 9.35604C12.3895 9.5391 12.3895 9.8359 12.2065 10.019Z" fill="black"/>
<path d="M12.2065 14.981C12.04 14.8146 11.7796 14.7995 11.5961 14.9357L11.5435 14.981L7.5 19.0244L3.45646 14.981C3.29004 14.8146 3.02962 14.7995 2.84612 14.9357L2.79354 14.981C2.62713 15.1475 2.612 15.4079 2.74816 15.5914L2.79354 15.644L7.16854 20.019C7.33496 20.1854 7.59538 20.2005 7.77888 20.0643L7.83146 20.019L12.2065 15.644C12.3895 15.4609 12.3895 15.1641 12.2065 14.981Z" fill="black"/>
</svg>