<!-- Generated by IcoMoon.io -->
<svg version="1.1" xmlns="http://www.w3.org/2000/svg" fill="#a3cf27" width="32" height="32" viewBox="0 0 32 32">
<title>tractor</title>
<path d="M9.712 20.69c0 0-0.155-0.412-0.155-0.464s-0.309 0.103-0.309 0.103l0.412-0.309 0.103-0.052c-0.206-0.412-0.412-0.773-0.67-1.082-0.103 0-0.206 0.052-0.206 0.052l-0.361-0.361-0.206 0.258 0.206-0.464c-0.361-0.309-0.773-0.567-1.237-0.722-0.052 0.103-0.155 0.155-0.155 0.155s-0.412-0.155-0.464-0.155l-0.052 0.309v-0.515c-0.258-0.052-0.567-0.103-0.825-0.103-0.206 0-0.412 0-0.618 0.052 0 0.052-0.052 0.155-0.052 0.155s-0.464 0.103-0.515 0.103l0.103 0.309-0.258-0.412c-0.515 0.155-1.031 0.464-1.443 0.825 0.052 0.103 0.052 0.206 0.052 0.206l-0.361 0.361 0.258 0.206-0.464-0.206c-0.258 0.361-0.515 0.773-0.67 1.185 0.103 0.103 0.155 0.206 0.155 0.206s-0.155 0.412-0.155 0.464l0.309 0.052h-0.515c-0.052 0.258-0.052 0.567-0.052 0.825s0 0.464 0.052 0.722c0.103 0 0.206 0.052 0.206 0.052s0.103 0.464 0.103 0.515l0.309-0.103-0.412 0.258c0.155 0.361 0.309 0.722 0.515 1.031 0.155-0.052 0.309-0.052 0.309-0.052s0.309 0.361 0.309 0.412l0.206-0.206-0.258 0.464-0.052 0.052c0.309 0.309 0.722 0.618 1.134 0.825 0.103-0.103 0.258-0.309 0.258-0.309s0.412 0.206 0.464 0.206l0.103-0.309v0.618c0.309 0.103 0.722 0.155 1.082 0.155h0.052c0.052-0.155 0.155-0.309 0.155-0.309s0.464-0.052 0.515-0.052l-0.052-0.309 0.206 0.464 0.052 0.052c0.361-0.052 0.722-0.206 1.031-0.361 0-0.155 0-0.309 0-0.309s0.361-0.258 0.412-0.258-0.155-0.258-0.155-0.258l0.412 0.361 0.052 0.052c0.258-0.206 0.515-0.464 0.722-0.722-0.103-0.103-0.155-0.258-0.155-0.258s0.258-0.361 0.258-0.412l-0.258-0.155 0.515 0.155h0.052c0.155-0.309 0.258-0.67 0.361-1.031-0.155-0.103-0.258-0.206-0.258-0.206s0.052-0.464 0.052-0.515h-0.309l0.515-0.103h0.103c0-0.052 0-0.103 0-0.155 0-0.309-0.052-0.618-0.103-0.928-0.155 0-0.361-0.052-0.361-0.052zM5.95 24.401c-1.392 0-2.577-1.185-2.577-2.629s1.134-2.629 2.577-2.629 2.577 1.185 2.577 2.629c0 1.443-1.134 2.629-2.577 2.629z"></path>
<path d="M5.95 19.659c-1.185 0-2.113 0.928-2.113 2.113 0.052 1.134 0.979 2.113 2.113 2.113s2.113-0.928 2.113-2.113c0-1.185-0.928-2.113-2.113-2.113z"></path>
<path d="M30.586 18.989c-0.206-0.052-0.464-0.103-0.464-0.103s-0.206-0.618-0.206-0.67c0-0.052-0.412 0.155-0.412 0.155l0.567-0.464 0.155-0.103c-0.206-0.567-0.515-1.031-0.876-1.495-0.155 0.052-0.258 0.103-0.258 0.103s-0.464-0.464-0.515-0.515c-0.052 0.052-0.258 0.309-0.258 0.309l0.309-0.67c-0.464-0.412-1.082-0.773-1.701-1.031-0.155 0.103-0.258 0.206-0.258 0.206s-0.618-0.206-0.67-0.206c0-0.052-0.103 0.412-0.103 0.412l-0.052-0.722c-0.361-0.052-0.722-0.103-1.134-0.103-0.309 0-0.567 0-0.876 0.052-0.052 0.155-0.103 0.258-0.103 0.258s-0.618 0.155-0.67 0.155 0.103 0.412 0.103 0.412l-0.361-0.567c-0.722 0.258-1.443 0.67-2.010 1.185 0 0.155 0.052 0.309 0.052 0.309s-0.464 0.464-0.515 0.515c-0.052 0 0.309 0.258 0.309 0.258l-0.67-0.309c-0.361 0.464-0.722 1.031-0.928 1.649 0.103 0.103 0.206 0.258 0.206 0.258s-0.206 0.618-0.206 0.67l0.412 0.103h-0.722c-0.052 0.361-0.103 0.722-0.103 1.134 0 0.309 0 0.618 0.052 0.928 0.155 0.052 0.258 0.103 0.258 0.103s0.155 0.67 0.155 0.722c0 0.052 0.412-0.103 0.412-0.103l-0.567 0.361c0.155 0.515 0.412 1.031 0.67 1.443 0.206-0.052 0.412-0.052 0.412-0.052s0.412 0.515 0.464 0.567l0.309-0.309-0.361 0.618-0.052 0.103c0.464 0.464 0.979 0.876 1.598 1.185 0.206-0.155 0.258-0.309 0.258-0.309s0.618 0.258 0.67 0.258c0.052 0 0.155-0.412 0.155-0.412l-0.052 0.722v0.103c0.515 0.155 1.031 0.206 1.546 0.206 0.052 0 0.052 0 0.103 0 0.103-0.206 0.206-0.412 0.206-0.412s0.67-0.052 0.722-0.052c0.052 0.052-0.052-0.412-0.052-0.412l0.309 0.67 0.052 0.103c0.515-0.103 0.979-0.309 1.443-0.515 0-0.206 0-0.412 0-0.412l0.567-0.361-0.258-0.361 0.567 0.464 0.052 0.052c0.412-0.309 0.722-0.67 1.031-1.031-0.052-0.206-0.155-0.412-0.155-0.412s0.361-0.515 0.412-0.567c0.052 0-0.361-0.206-0.361-0.206l0.722 0.206 0.103 0.052c0.206-0.464 0.412-0.928 0.515-1.443-0.206-0.103-0.361-0.258-0.361-0.258s0.103-0.67 0.103-0.722c0.052-0.052-0.412-0.052-0.412-0.052l0.773-0.103h0.103c0-0.103 0-0.155 0-0.258 0-0.464-0.052-0.876-0.155-1.288zM24.71 23.989c-1.959 0-3.608-1.649-3.608-3.659s1.598-3.659 3.608-3.659c2.010 0 3.608 1.649 3.608 3.659s-1.598 3.659-3.608 3.659z"></path>
<path d="M24.71 17.288c-1.598 0-2.938 1.34-2.938 2.989 0.052 1.701 1.34 2.989 2.938 2.989s2.938-1.34 2.938-2.989-1.288-2.989-2.938-2.989z"></path>
<path d="M28.576 15.897c0 0 0 0 0 0s0 0 0 0z"></path>
<path d="M20.226 12.444c0.052-0.052 0.052-0.206 0-0.258l-1.855-1.752c-0.052-0.052-0.206-0.052-0.258 0-0.052 0.103-0.052 0.206 0 0.258l0.67 0.618 0.258 0.258 0.928 0.876c0.052 0.052 0.206 0.052 0.258 0z"></path>
<path d="M24.762 13.784c1.907 0 3.659 0.876 4.845 2.216l0.773-0.618c0 0-0.825-1.598-3.969-2.474 0-3.556-0.567-6.236-0.567-6.236l0.567-0.722c-3.247-0.361-7.731-0.412-10.205 0.155-0.928 2.938-0.979 6.442-0.979 6.442-0.155 0-0.309-0.052-0.515-0.052v-4.639h-0.412v-1.443h-0.361v1.443h-0.309v4.587c-3.247 0-8.040 0.825-8.246 1.031-0.618 0.567-1.031 2.525-1.288 3.865 0.567-0.206 1.134-0.361 1.752-0.361 2.68 0 4.845 2.216 4.845 4.948 0 0.412-0.052 0.773-0.155 1.134l0.567 0.052 0.361-1.237h1.804l0.052 1.134 4.742 0.206 0.515-1.031c-0.155-0.567-0.258-1.185-0.258-1.855 0-3.608 2.886-6.546 6.442-6.546zM9.248 15.433l-0.722 0.155 0.361-2.062 0.722-0.052-0.361 1.959zM11.001 15.278l-0.67 0.052 0.361-2.010 0.722-0.103-0.412 2.062zM16.773 17.752h-1.082c0-0.155 0-0.309-0.052-0.412l3.092-4.536-0.155-0.206 0.722-0.773-0.515-0.515-0.722 0.773c0 0-0.464-0.412-0.773-0.773-0.052-0.052-0.361-0.103-0.412 0l-1.237 1.288c0.206-3.453 0.825-5.772 0.825-5.772l4.278-0.052v6.442c-2.989 1.649-3.711 3.917-3.969 4.536z"></path>
</svg>
