<!-- Generated by IcoMoon.io -->
<svg version="1.1" xmlns="http://www.w3.org/2000/svg" fill="#a3cf27" width="32" height="32" viewBox="0 0 32 32">
<title>trucks-and-trailers</title>
<path d="M8.164 6.778c0-0.382-0.239-0.669-0.573-0.717h-0.191v4.444h0.764v-3.727z"></path>
<path d="M7.399 24.314v2.676l0.334 0.096v2.676c0 0.287 0.239 0.573 0.573 0.573h1.242c0.287 0 0.573-0.239 0.573-0.573v-2.007l0.717 0.191h9.795l0.764-0.191v2.007c0 0.287 0.239 0.573 0.573 0.573h1.242c0.287 0 0.573-0.239 0.573-0.573v-2.676l0.287-0.096v-2.676h-16.676z"></path>
<path d="M17.529 16.669h1.242v6.403h-1.242v-6.403z"></path>
<path d="M25.939 11.174h-0.573c0-0.096-0.048-0.239-0.191-0.239l-3.536 0.048v-0.43h0.764v-3.727c0-0.812 0.573-1.433 1.386-1.529h0.191v-2.962h-16.58v2.962h0.191c0.764 0.096 1.386 0.717 1.386 1.529v3.727h0.812v0.43l-3.536-0.048c-0.143 0-0.191 0.096-0.191 0.239h-0.573c-0.191 0-0.382 0.143-0.382 0.382v3.106c0 0.191 0.143 0.382 0.382 0.382h0.573c-0.048 0.096 0 0.239 0.143 0.239l3.584 0.812v1.72h-0.764v1.816h-0.812v-1.816h-0.812v6.116h16.532v-6.116h-0.717v1.816h-0.812v-1.816h-0.764v-1.72l3.584-0.812c0.143-0.048 0.191-0.143 0.143-0.239h0.573c0.191 0 0.382-0.143 0.382-0.382v-3.106c0-0.239-0.143-0.382-0.382-0.382zM10.648 11.079c0-0.287 0.239-0.573 0.573-0.573h9.031c0.287 0 0.573 0.239 0.573 0.573v3.297c0 0.287-0.239 0.573-0.573 0.573h-9.031c-0.287 0-0.573-0.239-0.573-0.573v-3.297zM6.73 14.997h0.287c0.191 0 0.382-0.143 0.382-0.382v-3.106c0-0.096 0-0.143-0.048-0.191h2.437v4.348l-3.058-0.669zM11.7 22.403c0 0.191-0.143 0.382-0.382 0.382h-2.676c-0.191 0-0.382-0.191-0.382-0.382v-0.669c0-0.191 0.143-0.382 0.382-0.382h2.676c0.191 0 0.382 0.143 0.382 0.382v0.669zM19.297 23.502h-7.167v-7.979h7.167v7.979zM22.737 21.352c0.191 0 0.382 0.143 0.382 0.382v0.669c0 0.191-0.143 0.382-0.382 0.382h-2.676c-0.191 0-0.382-0.191-0.382-0.382v-0.669c0-0.191 0.143-0.382 0.382-0.382h2.676zM21.638 15.713v-4.348h2.437c-0.048 0.048-0.048 0.143-0.048 0.191v3.106c0 0.191 0.143 0.382 0.382 0.382h0.287l-3.058 0.669z"></path>
<path d="M23.263 6.778v3.727h0.717v-4.444h-0.143c-0.334 0.096-0.573 0.382-0.573 0.717z"></path>
<path d="M14.28 16.669h1.242v6.403h-1.242v-6.403z"></path>
<path d="M15.904 16.669h1.242v6.403h-1.242v-6.403z"></path>
<path d="M12.655 16.669h1.242v6.403h-1.242v-6.403z"></path>
</svg>
