<!-- <svg xmlns="http://www.w3.org/2000/svg" fill="#000000" viewBox="0 0 26 26" width="24px" height="24px"><path d="M 25.855469 5.574219 C 24.914063 5.992188 23.902344 6.273438 22.839844 6.402344 C 23.921875 5.75 24.757813 4.722656 25.148438 3.496094 C 24.132813 4.097656 23.007813 4.535156 21.8125 4.769531 C 20.855469 3.75 19.492188 3.113281 17.980469 3.113281 C 15.082031 3.113281 12.730469 5.464844 12.730469 8.363281 C 12.730469 8.773438 12.777344 9.175781 12.867188 9.558594 C 8.503906 9.339844 4.636719 7.246094 2.046875 4.070313 C 1.59375 4.847656 1.335938 5.75 1.335938 6.714844 C 1.335938 8.535156 2.261719 10.140625 3.671875 11.082031 C 2.808594 11.054688 2 10.820313 1.292969 10.425781 C 1.292969 10.449219 1.292969 10.46875 1.292969 10.492188 C 1.292969 13.035156 3.101563 15.15625 5.503906 15.640625 C 5.0625 15.761719 4.601563 15.824219 4.121094 15.824219 C 3.78125 15.824219 3.453125 15.792969 3.132813 15.730469 C 3.800781 17.8125 5.738281 19.335938 8.035156 19.375 C 6.242188 20.785156 3.976563 21.621094 1.515625 21.621094 C 1.089844 21.621094 0.675781 21.597656 0.265625 21.550781 C 2.585938 23.039063 5.347656 23.90625 8.3125 23.90625 C 17.96875 23.90625 23.25 15.90625 23.25 8.972656 C 23.25 8.742188 23.246094 8.515625 23.234375 8.289063 C 24.261719 7.554688 25.152344 6.628906 25.855469 5.574219"/></svg> -->
<svg xmlns="http://www.w3.org/2000/svg" width="31" height="31" viewBox="0 0 31 31" fill="none">
<path fill-rule="evenodd" clip-rule="evenodd" d="M15.1927 0C6.80199 0 0 6.80199 0 15.1927C0 23.5833 6.80199 30.3853 15.1927 30.3853C23.5833 30.3853 30.3853 23.5833 30.3853 15.1927C30.3853 6.80199 23.5833 0 15.1927 0ZM14.7695 12.8745L14.7376 12.3488C14.642 10.9863 15.4815 9.74176 16.8099 9.25897C17.2987 9.08731 18.1276 9.06586 18.6696 9.21605C18.8822 9.28043 19.286 9.495 19.5729 9.68811L20.0936 10.0422L20.6675 9.85977C20.9863 9.76321 21.4114 9.60228 21.6027 9.495C21.7833 9.39844 21.9427 9.3448 21.9427 9.37698C21.9427 9.55937 21.5495 10.1816 21.2201 10.5249C20.7738 11.0077 20.9013 11.0506 21.8046 10.7288C22.3465 10.5464 22.3572 10.5464 22.2509 10.7502C22.1871 10.8575 21.8577 11.233 21.507 11.5763C20.9119 12.1664 20.88 12.2308 20.88 12.7243C20.88 13.486 20.5187 15.0739 20.1574 15.9429C19.4879 17.5736 18.0532 19.258 16.6186 20.1056C14.5995 21.2964 11.9109 21.5968 9.64733 20.8995C8.89282 20.6634 7.59633 20.0626 7.59633 19.9554C7.59633 19.9232 7.98953 19.8803 8.46774 19.8695C9.46667 19.8481 10.4656 19.5691 11.3158 19.0756L11.8896 18.7323L11.2307 18.507C10.2956 18.1851 9.45605 17.4449 9.24351 16.7475C9.17975 16.5222 9.201 16.5115 9.79611 16.5115L10.4125 16.5008L9.89175 16.254C9.27539 15.9429 8.71216 15.4172 8.43586 14.8807C8.23395 14.4945 7.9789 13.5182 8.05329 13.4431C8.07454 13.4109 8.29771 13.4753 8.55276 13.5611C9.28601 13.8293 9.38166 13.765 8.95658 13.3144C8.15956 12.499 7.91514 11.2867 8.29771 10.1387L8.47837 9.62374L9.17975 10.3211C10.6144 11.7265 12.3041 12.5634 14.2382 12.8101L14.7695 12.8745Z" fill="#272E43"/>
</svg>