<!-- <svg xmlns="http://www.w3.org/2000/svg" height="24px" viewBox="0 0 24 24" width="24px"><path d="M0 0h24v24H0z" fill="none"/><path d="M12 4.5C7 4.5 2.73 7.61 1 12c1.73 4.39 6 7.5 11 7.5s9.27-3.11 11-7.5c-1.73-4.39-6-7.5-11-7.5zM12 17c-2.76 0-5-2.24-5-5s2.24-5 5-5 5 2.24 5 5-2.24 5-5 5zm0-8c-1.66 0-3 1.34-3 3s1.34 3 3 3 3-1.34 3-3-1.34-3-3-3z"/></svg> -->
<svg xmlns="http://www.w3.org/2000/svg" width="26" height="26" viewBox="0 0 26 26" fill="none">
<g clip-path="url(#clip0_114_11199)">
<path d="M25.3824 11.3967C22.5224 8.24417 17.7991 4.89667 12.9999 4.98334C8.20072 5.07 3.47739 8.24417 0.617388 11.3967C0.210864 11.8402 -0.0146484 12.42 -0.0146484 13.0217C-0.0146484 13.6233 0.210864 14.2031 0.617388 14.6467C2.52405 16.705 7.30155 21.0167 12.9999 21.0167C18.6982 21.0167 23.4649 16.6833 25.3824 14.5925C25.7738 14.1523 25.99 13.5837 25.99 12.9946C25.99 12.4055 25.7738 11.8369 25.3824 11.3967ZM8.01655 13C8.01655 12.0144 8.30882 11.0509 8.8564 10.2314C9.40397 9.41191 10.1823 8.77318 11.0928 8.396C12.0034 8.01883 13.0054 7.92014 13.9721 8.11242C14.9388 8.30471 15.8267 8.77932 16.5236 9.47626C17.2206 10.1732 17.6952 11.0611 17.8875 12.0278C18.0798 12.9945 17.9811 13.9965 17.6039 14.907C17.2267 15.8176 16.588 16.5959 15.7685 17.1435C14.949 17.6911 13.9855 17.9833 12.9999 17.9833C11.6782 17.9833 10.4107 17.4583 9.47614 16.5238C8.54158 15.5892 8.01655 14.3217 8.01655 13Z" fill="#272E43"/>
<path d="M12.9997 15.1667C14.1963 15.1667 15.1663 14.1966 15.1663 13C15.1663 11.8034 14.1963 10.8333 12.9997 10.8333C11.8031 10.8333 10.833 11.8034 10.833 13C10.833 14.1966 11.8031 15.1667 12.9997 15.1667Z" fill="#272E43"/>
</g>
<defs>
<clipPath id="clip0_114_11199">
<rect width="26" height="26" fill="white"/>
</clipPath>
</defs>
</svg>