<svg class="title-icon" viewBox="0 0 30 30" version="1.1" xmlns="http://www.w3.org/2000/svg"
        xmlns:xlink="http://www.w3.org/1999/xlink" width="32" height="32">
    <path d="M12.5,30 C14.25952,30 15.716155,28.6933 15.960085,27 L21.29297,27 L20.646485,27.646485 L21.353515,28.353515 L22.853515,26.853515 C22.95117,26.75586 23,26.62793 23,26.5 C23,26.37207 22.95117,26.24414 22.853515,26.146485 L21.353515,24.646485 L20.646485,25.353515 L21.29297,26 L15.960085,26 C15.716155,24.3067 14.25952,23 12.5,23 C10.57031,23 9,24.57007 9,26.5 C9,28.42993 10.57031,30 12.5,30 Z M12.5,24 C13.87842,24 15,25.12158 15,26.5 C15,27.87842 13.87842,29 12.5,29 C11.12158,29 10,27.87842 10,26.5 C10,25.12158 11.12158,24 12.5,24 Z"
    ></path>
    <path d="M26.5,30 C28.42969,30 30,28.42993 30,26.5 C30,24.57007 28.42969,23 26.5,23 C24.57031,23 23,24.57007 23,26.5 C23,28.42993 24.57031,30 26.5,30 Z M26.5,24 C27.87842,24 29,25.12158 29,26.5 C29,27.87842 27.87842,29 26.5,29 C25.12158,29 24,27.87842 24,26.5 C24,25.12158 25.12158,24 26.5,24 Z"
    ></path>
    <path d="M10.5,11.5 C8.74048,11.5 7.283875,12.8067 7.03995,14.5 L6.25,14.5 C2.80371,14.5 0,17.30371 0,20.75 C0,24.19629 2.80371,27 6.25,27 L7.29297,27 L6.646485,27.646485 L7.353515,28.353515 L8.853515,26.853515 C8.95117,26.75586 9,26.62793 9,26.5 C9,26.37207 8.95117,26.24414 8.853515,26.146485 L7.353515,24.646485 L6.646485,25.353515 L7.29297,26 L6.25,26 C3.35498,26 1,23.644775 1,20.75 C1,17.855225 3.35498,15.5 6.25,15.5 L7.03995,15.5 C7.283875,17.1933 8.74048,18.5 10.5,18.5 C12.42969,18.5 14,16.92993 14,15 C14,13.07007 12.42969,11.5 10.5,11.5 Z M10.5,17.5 C9.12158,17.5 8,16.37842 8,15 C8,13.62158 9.12158,12.5 10.5,12.5 C11.87842,12.5 13,13.62158 13,15 C13,16.37842 11.87842,17.5 10.5,17.5 Z"
    ></path>
    <path d="M12.353515,1.646485 L11.646485,2.353515 L12.29297,3 L6.960085,3 C6.716155,1.3067 5.25952,0 3.5,0 C1.57031,0 0,1.57007 0,3.5 C0,5.42993 1.57031,7 3.5,7 C5.25952,7 6.716155,5.6933 6.960085,4 L12.29297,4 L11.646485,4.646485 L12.353515,5.353515 L13.853515,3.853515 C13.95117,3.75586 14,3.62793 14,3.5 C14,3.37207 13.95117,3.24414 13.853515,3.146485 L12.353515,1.646485 Z M3.5,6 C2.12158,6 1,4.87842 1,3.5 C1,2.12158 2.12158,1 3.5,1 C4.87842,1 6,2.12158 6,3.5 C6,4.87842 4.87842,6 3.5,6 Z"
    ></path>
    <path d="M30,9.25 C30,5.80371 27.19629,3 23.75,3 L20.960085,3 C20.716155,1.3067 19.25952,-1.0658141e-13 17.5,-1.0658141e-13 C15.57031,-1.0658141e-13 14,1.57007 14,3.5 C14,5.42993 15.57031,7 17.5,7 C19.25952,7 20.716155,5.6933 20.960085,4 L23.75,4 C26.64502,4 29,6.355225 29,9.25 C29,12.144775 26.64502,14.5 23.75,14.5 L15.70703,14.5 L16.353515,13.853515 L15.646485,13.146485 L14.146485,14.646485 C14.04883,14.74414 14,14.87207 14,15 C14,15.12793 14.04883,15.25586 14.146485,15.353515 L15.646485,16.853515 L16.353515,16.146485 L15.70703,15.5 L23.75,15.5 C27.19629,15.5 30,12.69629 30,9.25 Z M17.5,6 C16.12158,6 15,4.87842 15,3.5 C15,2.12158 16.12158,1 17.5,1 C18.87842,1 20,2.12158 20,3.5 C20,4.87842 18.87842,6 17.5,6 Z"
    ></path>
    <title>working</title>
</svg>
